<svg width="17" height="22" viewBox="0 0 17 22" fill="none" xmlns="http://www.w3.org/2000/svg">
<path d="M13.5488 6.875L10.9035 16.7475C10.3951 18.6448 8.16727 19.6948 5.92507 19.094C3.68288 18.4932 2.27855 16.4699 2.78692 14.5727L5.66228 3.8417C5.97972 2.657 7.37367 1.99997 8.77377 2.37513C10.1739 2.75029 11.0526 4.01626 10.7351 5.20096L8.31981 14.215C8.1933 14.6872 7.63323 14.9511 7.07522 14.8016C6.5172 14.6521 6.16416 14.1435 6.29068 13.6713L8.47595 5.51574L6.9541 5.10796L4.76883 13.2635C4.45139 14.4482 5.33007 15.7142 6.73017 16.0893C8.13028 16.4645 9.52422 15.8075 9.84166 14.6228L12.257 5.60874C12.7653 3.7115 11.361 1.6882 9.11882 1.08741C6.87662 0.486616 4.64879 1.53668 4.14043 3.43392L1.26507 14.1649C0.565781 16.7747 2.49574 19.5553 5.58003 20.3817C8.66431 21.2082 11.726 19.7651 12.4253 17.1553L15.0706 7.28278L13.5488 6.875Z" fill="#2A2D34" fill-opacity="0.5"/>
</svg>
