<svg width="123" height="38" viewBox="0 0 123 38" fill="none" xmlns="http://www.w3.org/2000/svg">
<path d="M116.097 0.124833C117.997 -0.28425 120.096 0.359455 121.419 1.79927C123.036 3.44162 123.453 6.11069 122.453 8.18619C122.096 8.95041 121.576 9.62642 120.929 10.1662C120.282 10.706 119.525 11.0963 118.711 11.3093C117.896 11.5224 117.045 11.553 116.218 11.3989C115.391 11.2449 114.607 10.91 113.924 10.4181C112.754 9.57478 111.943 8.32079 111.653 6.90552C111.364 5.49024 111.615 4.01739 112.359 2.77987C112.766 2.10315 113.309 1.51805 113.952 1.06119C114.595 0.604336 115.325 0.285566 116.097 0.124833ZM116.544 3.7725C116.499 4.6408 116.533 5.51411 116.527 6.38441C116.5 6.7203 116.794 7.05218 117.14 7.0201C118.21 6.983 119.283 7.02912 120.354 6.99704C120.793 6.9068 120.946 6.29518 120.654 5.97633C120.591 5.90822 120.513 5.85494 120.427 5.82029C120.34 5.78564 120.247 5.77045 120.154 5.7758C119.355 5.7758 118.566 5.7758 117.772 5.7758C117.772 5.17421 117.772 4.57261 117.772 3.97102C117.78 3.87353 117.768 3.77536 117.734 3.68339C117.701 3.59141 117.648 3.50787 117.579 3.43861C117.254 3.13781 116.602 3.28922 116.545 3.76548L116.544 3.7725ZM87.2763 14.7426C89.2879 13.781 91.5094 13.1914 93.7499 13.2466C95.1616 13.2787 96.6493 13.5745 97.7741 14.4779C98.8379 15.305 99.3808 16.6787 99.3538 18.0092C99.3948 19.1974 98.9379 20.3574 98.212 21.2829C97.1772 22.6224 95.7555 23.5729 94.4408 24.6097C93.251 25.5402 92.0153 26.5829 91.5114 28.0628C94.2108 28.0679 96.9103 28.0628 99.6097 28.0628C99.6097 29.1163 99.6097 30.1704 99.6097 31.2252C95.2996 31.2152 90.9895 31.2463 86.6804 31.2092C86.8514 29.5367 87.2653 27.8623 88.1261 26.4054C88.955 24.9556 90.1577 23.7594 91.4724 22.7488C92.4612 21.9647 93.542 21.2949 94.4648 20.4276C95.0167 19.9062 95.5006 19.2144 95.4816 18.4223C95.5036 17.7926 95.2026 17.1449 94.6558 16.8181C93.8859 16.3288 92.9271 16.3318 92.0503 16.417C90.7146 16.5554 89.4449 17.0386 88.2331 17.5981C87.9142 16.6456 87.6063 15.6931 87.2783 14.7405L87.2763 14.7426ZM99.2488 24.6167C102.203 20.842 105.16 17.0694 108.12 13.2987C109.006 13.3078 109.893 13.2987 110.778 13.2987C110.778 16.8648 110.778 20.431 110.778 23.9971C111.653 23.9971 112.527 23.9971 113.403 23.9971C113.403 24.9947 113.403 25.9934 113.403 26.992C112.527 26.992 111.651 26.992 110.775 26.992C110.78 28.4017 110.775 29.8125 110.775 31.2232H107.168C107.168 29.8121 107.168 28.4011 107.168 26.99C104.528 26.99 101.888 26.99 99.2478 26.99C99.2478 26.1959 99.2478 25.4028 99.2478 24.6107L99.2488 24.6167ZM103.373 24.0753C104.638 23.987 105.904 23.9961 107.172 24.0011C107.172 22.2815 107.148 20.558 107.324 18.8454C106.01 20.591 104.705 22.3437 103.373 24.0753Z" fill="#DDDFF2"/>
<path d="M0.0366211 14.764C3.61586 14.7279 7.1971 14.764 10.7773 14.749C10.5164 15.6825 10.2085 16.6019 9.94052 17.5334C7.78198 17.5494 5.62243 17.5394 3.46289 17.5334C3.4339 18.6664 3.45689 19.7994 3.4519 20.9334C5.35149 20.9163 7.36207 20.8913 9.0927 21.7977C9.63049 22.0653 10.1019 22.4501 10.4724 22.9238C10.8429 23.3976 11.1032 23.9483 11.2342 24.5359C11.5172 25.8023 11.4602 27.1869 10.8953 28.3701C10.3824 29.4289 9.39563 30.1879 8.30087 30.5759C7.08013 31.0241 5.7644 31.1464 4.47168 31.1264H0.0446194C0.0366211 25.6709 0.0496183 20.2185 0.0366211 14.764ZM3.4519 23.7097C3.4519 25.2431 3.4519 26.7762 3.4519 28.3089C4.45168 28.2879 5.48546 28.4092 6.46126 28.1084C6.98914 27.949 7.50504 27.6281 7.74898 27.1138C8.00685 26.5228 8.04585 25.859 7.85896 25.2418C7.77635 24.9562 7.6261 24.6949 7.42102 24.4802C7.21595 24.2654 6.96213 24.1036 6.68121 24.0085C5.64843 23.6375 4.52967 23.7248 3.4509 23.7077L3.4519 23.7097ZM37.3187 19.8264C39.2943 19.1837 41.4178 18.897 43.4784 19.1847C45.0581 19.4123 46.6297 20.1874 47.5175 21.561C48.4343 22.9648 48.6543 24.7395 48.4173 26.3738C48.2024 27.8918 47.3906 29.3256 46.1438 30.225C45.0433 31.0052 43.7137 31.3928 42.3676 31.3259C41.7865 31.3525 41.2045 31.2944 40.64 31.1535C40.64 33.0806 40.622 35.0087 40.635 36.9368C39.9781 36.9368 39.3163 36.8786 38.6664 36.9889C38.2575 37.009 37.8476 37.0039 37.4387 36.9939L37.3287 36.8876C37.3237 31.2006 37.3047 25.5125 37.3187 19.8264ZM40.658 21.9972C40.653 24.1188 40.652 26.2404 40.643 28.3621C41.3788 28.6188 42.1698 28.6728 42.9335 28.5185C43.3086 28.4365 43.6604 28.2707 43.9627 28.0334C44.2649 27.7961 44.5098 27.4934 44.6791 27.1478C45.0891 26.2916 45.142 25.2979 44.9981 24.3705C44.8641 23.4932 44.3712 22.6359 43.5574 22.2348C42.6656 21.8027 41.6098 21.7475 40.658 21.9972ZM70.4437 19.7111C71.3155 18.916 72.6042 18.9962 73.677 19.2319C73.693 20.1964 73.682 21.162 73.683 22.1265C73.1891 21.9791 72.5402 21.8899 72.1893 22.3622C71.5264 23.2254 71.5274 24.4908 70.6286 25.1967C71.2095 25.4383 71.6444 25.9296 71.9034 26.5001C72.6222 28.0432 73.3471 29.5833 74.0549 31.1324C72.8382 31.1324 71.6214 31.1404 70.4047 31.1264C69.9508 29.9322 69.5049 28.736 69.051 27.5419C68.877 27.1298 68.692 26.6395 68.2511 26.448C67.6743 26.3838 67.0904 26.4349 66.5105 26.4229C66.5045 27.9911 66.5105 29.5602 66.5105 31.1284C65.3867 31.1384 64.262 31.1284 63.1382 31.1344C63.1132 28.1334 63.1382 25.1315 63.1272 22.1305C63.1412 21.2071 63.0992 20.2806 63.1482 19.3582C64.269 19.3773 65.3897 19.3582 66.5105 19.3682C66.5105 20.8622 66.5105 22.3561 66.5105 23.8501C67.1924 23.7879 68.0812 24.0887 68.5621 23.439C69.3619 22.289 69.3849 20.7088 70.4407 19.7162L70.4437 19.7111ZM76.7663 20.3358C78.366 19.1246 80.5305 18.8027 82.4581 19.282C82.968 19.4294 83.5129 19.5998 83.9238 19.9407C83.9448 20.8762 83.9298 21.8137 83.9288 22.7482C82.97 22.0193 81.7423 21.6192 80.5385 21.7957C80.1392 21.8458 79.7541 21.9763 79.4062 22.1792C79.0583 22.3822 78.7548 22.6535 78.514 22.9768C77.8921 23.817 77.7141 24.9169 77.8491 25.9376C77.9391 26.6946 78.249 27.4557 78.8299 27.962C79.4108 28.4683 80.1966 28.6809 80.9534 28.6639C81.8872 28.6749 82.797 28.351 83.5869 27.8677C83.9518 28.6288 84.2617 29.4199 84.5607 30.2089C82.92 31.2748 80.8615 31.5966 78.9499 31.2427C77.6331 30.998 76.3874 30.2982 75.5736 29.2203C74.5348 27.8677 74.2209 26.072 74.4208 24.4046C74.5187 23.6029 74.777 22.8293 75.1802 22.1301C75.5834 21.431 76.1222 20.8206 76.7663 20.3358ZM12.9919 19.3612C14.0816 19.3612 15.1704 19.3672 16.2602 19.3612C16.2492 21.8007 16.3352 24.2452 16.1742 26.6806C17.6349 24.1399 19.4255 21.8137 21.0442 19.3763C22.1439 19.3512 23.2437 19.3712 24.3435 19.3652C24.3535 23.2856 24.3435 27.206 24.3435 31.1264L21.0712 31.1324C21.0712 29.2995 21.0712 27.4667 21.0712 25.6338C21.0712 25.0322 21.1301 24.4397 21.1711 23.8431C20.6143 24.7214 20.0994 25.6258 19.5045 26.4791C18.4307 28.0322 17.3699 29.5943 16.2812 31.1364C15.1814 31.1244 14.0896 31.1364 12.9939 31.1304C12.9939 27.2087 12.9939 23.2869 12.9939 19.3652L12.9919 19.3612ZM49.864 19.3612C50.9548 19.3672 52.0456 19.3612 53.1353 19.3612C53.1233 21.7937 53.1993 24.2291 53.0454 26.6575C53.4973 25.9557 53.8922 25.2177 54.3641 24.5289C55.5458 22.8053 56.7386 21.0888 57.9213 19.3652C59.0211 19.3562 60.1149 19.3652 61.2116 19.3652C61.2116 23.2856 61.2116 27.206 61.2116 31.1264C60.1199 31.1354 59.0271 31.1264 57.9353 31.1264C57.9173 29.462 57.9353 27.7986 57.9273 26.1342C57.9163 25.3631 57.9773 24.5921 58.0323 23.823C56.5546 26.3547 54.801 28.707 53.1443 31.1204C52.0526 31.1204 50.9618 31.1123 49.871 31.1204C49.871 27.2 49.85 23.2806 49.863 19.3612H49.864ZM25.4692 19.3662C29.1564 19.3662 32.8433 19.3662 36.5299 19.3662C36.2299 20.3027 35.954 21.2472 35.6401 22.1797C34.5353 22.1737 33.4295 22.1797 32.3248 22.1797C32.3198 25.1526 32.3018 28.1264 32.3248 31.1033C31.202 31.1454 30.0772 31.1033 28.9545 31.1264C28.9265 28.1465 28.9545 25.1656 28.9365 22.1847C27.7807 22.1847 26.625 22.1847 25.4692 22.1847V19.3632V19.3662Z" fill="#DDDFF2"/>
</svg>
