<svg width="16" height="16" viewBox="0 0 16 16" fill="none" xmlns="http://www.w3.org/2000/svg">
<path d="M0.998698 6.66667H0.332031V2.66867C0.332031 2.29933 0.635365 2 0.993365 2H13.004C13.0915 1.99982 13.1782 2.01704 13.259 2.05067C13.3398 2.0843 13.4131 2.13366 13.4747 2.19589C13.5362 2.25812 13.5848 2.33196 13.6175 2.41313C13.6502 2.49429 13.6665 2.58116 13.6654 2.66867V6.66667H12.9987V13.334C12.999 13.4212 12.982 13.5076 12.9489 13.5883C12.9158 13.6689 12.8671 13.7423 12.8056 13.8041C12.7442 13.8659 12.6711 13.9151 12.5906 13.9487C12.5102 13.9823 12.4239 13.9997 12.3367 14H1.6607C1.5735 13.9997 1.48721 13.9823 1.40675 13.9487C1.32629 13.9151 1.25324 13.8659 1.19176 13.8041C1.13029 13.7423 1.0816 13.6689 1.04848 13.5883C1.01535 13.5076 0.998435 13.4212 0.998698 13.334V6.66667ZM11.6654 6.66667H2.33203V12.6667H11.6654V6.66667ZM1.66536 3.33333V5.33333H12.332V3.33333H1.66536ZM4.9987 8H8.9987V9.33333H4.9987V8Z" fill="white"/>
</svg>
