<svg width="15" height="16" viewBox="0 0 15 16" fill="none" xmlns="http://www.w3.org/2000/svg">
<path d="M12.6562 1.9375H9.87431L9.56675 0.968031C9.56606 0.965875 9.56534 0.963687 9.56466 0.961531C9.37291 0.386406 8.83675 0 8.23053 0H5.83197C5.22575 0 4.68959 0.386406 4.49788 0.961531C4.49719 0.963687 4.49647 0.965875 4.49578 0.968031L4.18819 1.9375H1.40625C0.630844 1.9375 0 2.56834 0 3.34375V4.28125C0 4.54013 0.209875 4.75 0.46875 4.75H0.974656L1.79906 14.7173C1.79919 14.7186 1.79928 14.7198 1.79941 14.7211C1.86572 15.4502 2.46781 16 3.19987 16H10.8626C11.5947 16 12.1967 15.4502 12.2631 14.7211C12.2632 14.7198 12.2633 14.7186 12.2634 14.7173L13.0878 4.75H13.5938C13.8526 4.75 14.0625 4.54013 14.0625 4.28125V3.34375C14.0625 2.56834 13.4317 1.9375 12.6562 1.9375ZM5.38816 1.25534C5.45284 1.06509 5.63084 0.9375 5.83197 0.9375H8.23053C8.43169 0.9375 8.60966 1.06509 8.67434 1.25534L8.89075 1.9375H5.17175L5.38816 1.25534ZM11.3293 14.6377C11.3065 14.88 11.1061 15.0625 10.8626 15.0625H3.19987C2.95637 15.0625 2.756 14.88 2.73319 14.6377L1.91537 4.75H12.1471L11.3293 14.6377ZM13.125 3.8125H0.9375V3.34375C0.9375 3.08528 1.14778 2.875 1.40625 2.875H4.52678C4.52825 2.875 4.52969 2.875 4.53116 2.875H9.52806C9.52909 2.875 9.53009 2.87512 9.53113 2.87512C9.53219 2.87512 9.53328 2.875 9.53434 2.875H12.6562C12.9147 2.875 13.125 3.08528 13.125 3.34375V3.8125Z" fill="#949699"/>
<path d="M4.21875 5.6875C3.95987 5.6875 3.75 5.89737 3.75 6.15625V13.6562C3.75 13.9151 3.95987 14.125 4.21875 14.125C4.47763 14.125 4.6875 13.9151 4.6875 13.6562V6.15625C4.6875 5.89737 4.47763 5.6875 4.21875 5.6875Z" fill="#949699"/>
<path d="M7.03125 5.6875C6.77237 5.6875 6.5625 5.89737 6.5625 6.15625V13.6562C6.5625 13.9151 6.77237 14.125 7.03125 14.125C7.29013 14.125 7.5 13.9151 7.5 13.6562V6.15625C7.5 5.89737 7.29013 5.6875 7.03125 5.6875Z" fill="#949699"/>
<path d="M9.84375 5.6875C9.58487 5.6875 9.375 5.89737 9.375 6.15625V13.6562C9.375 13.9151 9.58487 14.125 9.84375 14.125C10.1026 14.125 10.3125 13.9151 10.3125 13.6562V6.15625C10.3125 5.89737 10.1026 5.6875 9.84375 5.6875Z" fill="#949699"/>
</svg>
