<svg width="67" height="54" viewBox="0 0 67 54" fill="none" xmlns="http://www.w3.org/2000/svg">
<path fill-rule="evenodd" clip-rule="evenodd" d="M11.6285 47.8874C11.6285 46.864 10.9493 46.143 9.99125 46.143C9.03321 46.143 8.30307 46.864 8.30307 47.8874C8.30307 48.9107 9.03211 49.6329 9.99125 49.6329C10.9504 49.6329 11.6285 48.9215 11.6285 47.8874ZM12.768 47.8874C12.768 49.526 11.6993 50.6843 10.2302 50.6843C9.84769 50.6919 9.46968 50.6027 9.13308 50.4252C8.79648 50.2477 8.51279 49.9881 8.30971 49.6717V53.0062H7.18131V45.2081H8.30971V46.1246C8.51079 45.8034 8.79441 45.5392 9.13245 45.3579C9.4705 45.1767 9.85121 45.0849 10.2368 45.0915C11.6761 45.0915 12.7647 46.2498 12.7647 47.8874H12.768Z" fill="#DDDFF2"/>
<path fill-rule="evenodd" clip-rule="evenodd" d="M17.9352 47.8874C17.9352 46.864 17.2061 46.1429 16.2481 46.1429C15.2901 46.1429 14.6163 46.864 14.6163 47.8874C14.6163 48.9107 15.3044 49.6329 16.2536 49.6329C17.2028 49.6329 17.9352 48.9215 17.9352 47.8874ZM19.0547 45.2081V50.5677H17.9274V49.6717C17.7258 49.9887 17.4429 50.2488 17.1066 50.4264C16.7704 50.604 16.3925 50.6929 16.0102 50.6843C14.5422 50.6843 13.4736 49.526 13.4736 47.8874C13.4736 46.2487 14.5621 45.0915 16.0003 45.0915C16.3859 45.0849 16.7666 45.1767 17.1047 45.3579C17.4427 45.5392 17.7263 45.8034 17.9274 46.1246V45.2081H19.0547Z" fill="#DDDFF2"/>
<path fill-rule="evenodd" clip-rule="evenodd" d="M25.2677 45.2075L21.6325 53.0035H20.4233L21.8714 49.8849L19.7042 45.2075H20.9123L22.471 48.6964L24.0585 45.2075H25.2677Z" fill="#DDDFF2"/>
<path fill-rule="evenodd" clip-rule="evenodd" d="M34.1654 47.1266V50.5669H33.037V47.3609C33.037 46.5621 32.7051 46.1422 31.9484 46.1422C31.0634 46.1422 30.601 46.8147 30.601 47.7894L30.6109 50.5669H29.4715V47.3609C29.4715 46.5621 29.1396 46.1422 28.3829 46.1422C27.4979 46.1422 27.0454 46.8147 27.0454 47.7894V50.5669H25.917V45.2084H27.0454V46.0644C27.4248 45.4502 27.9636 45.0929 28.7524 45.0929C29.592 45.0929 30.1806 45.4923 30.4505 46.2145C30.82 45.5215 31.4395 45.0929 32.308 45.0929C33.4662 45.0897 34.1654 45.8507 34.1654 47.1266Z" fill="#DDDFF2"/>
<path fill-rule="evenodd" clip-rule="evenodd" d="M36.2143 47.2933H39.4103C39.24 46.5625 38.6702 46.0465 37.8416 46.0465C36.9832 46.0465 36.4035 46.5711 36.2143 47.2933ZM40.614 48.1903H36.1535C36.2442 49.1748 36.9533 49.72 37.8715 49.72C38.5353 49.72 39.0796 49.4458 39.3395 48.9212H40.5089C40.0796 50.1194 39.0298 50.6839 37.8615 50.6839C36.1944 50.6839 35.0051 49.5149 35.0051 47.8978C35.0051 46.2808 36.1833 45.0912 37.8416 45.0912C39.6095 45.0901 40.7246 46.4265 40.614 48.1903Z" fill="#DDDFF2"/>
<path fill-rule="evenodd" clip-rule="evenodd" d="M46.4103 47.186V50.5669H45.2808V47.4095C45.2808 46.5815 44.9113 46.1432 44.0827 46.1432C43.1136 46.1432 42.5947 46.7564 42.5947 47.7894V50.5669H41.4663V45.2073H42.5947V46.0968C42.7773 45.7812 43.0452 45.5206 43.3693 45.3435C43.6934 45.1665 44.0611 45.0798 44.4323 45.0929C45.6713 45.0897 46.4103 45.8809 46.4103 47.186Z" fill="#DDDFF2"/>
<path fill-rule="evenodd" clip-rule="evenodd" d="M51.5233 50.2951C51.0399 50.5457 50.5019 50.6793 49.9546 50.6848C48.8262 50.6848 47.9478 49.9918 47.9478 48.5118V46.2449H46.9289V45.2119H47.9478V43.9888L49.0751 43.7449V45.2075H51.333V46.2406H49.0751V48.4524C49.0751 49.2318 49.4457 49.6615 50.1548 49.6615C50.5044 49.6615 50.8938 49.5438 51.323 49.397L51.5233 50.2951Z" fill="#DDDFF2"/>
<path fill-rule="evenodd" clip-rule="evenodd" d="M51.9134 48.8422H53.0617C53.232 49.437 53.6812 49.7057 54.6304 49.7057C55.3583 49.7057 55.8075 49.4898 55.8075 49.0926C55.8075 48.6435 55.2886 48.5745 54.3693 48.3607C52.8305 47.9905 52.1811 47.6882 52.1811 46.7912C52.1811 45.7117 53.1214 45.0867 54.4987 45.0867C55.907 45.0867 56.6958 45.7344 56.896 46.7134H55.7566C55.5973 46.2752 55.1769 46.0604 54.4788 46.0604C53.7498 46.0604 53.3205 46.3043 53.3205 46.6746C53.3205 47.0157 53.6602 47.1064 54.6193 47.3277C56.1073 47.6688 56.9657 47.9214 56.9657 48.9641C56.9657 50.1149 55.907 50.6794 54.6094 50.6794C53.1624 50.6837 52.1191 50.0026 51.9134 48.8422Z" fill="#DDDFF2"/>
<path fill-rule="evenodd" clip-rule="evenodd" d="M3.69238 26.6919C4.0608 24.8721 4.88666 23.17 6.09581 21.7386C7.30497 20.3071 8.85955 19.1911 10.6199 18.4908C12.3803 17.7905 14.2914 17.5278 16.1816 17.7262C18.0718 17.9247 19.8818 18.5781 21.4492 19.6279L23.6563 17.4743C21.9191 16.2131 19.9164 15.3444 17.793 14.9311C18.0754 12.0626 19.3142 9.36372 21.3194 7.24818C23.3247 5.13265 25.9857 3.71728 28.8944 3.2191C31.8032 2.72091 34.7991 3.16742 37.4228 4.49014C40.0466 5.81287 42.1533 7.9388 43.4199 10.542C40.7291 11.232 38.2374 12.5178 36.1384 14.2996L38.3244 16.4326C40.4442 14.6793 43.0222 13.5363 45.77 13.1314C48.5177 12.7266 51.3267 13.0758 53.8825 14.1402C56.4384 15.2045 58.6403 16.9419 60.2417 19.1579C61.8431 21.3739 62.7809 23.9811 62.9501 26.6876H66.0366C65.8037 22.1742 63.8022 17.9208 60.446 14.8067C57.0898 11.6925 52.6356 9.9559 48.0043 9.9558C47.5175 9.9558 47.0341 9.97631 46.5529 10.0141C45.1428 6.67228 42.6261 3.88769 39.4044 2.10478C36.1828 0.321878 32.4419 -0.356573 28.7789 0.177717C25.1158 0.712007 21.7418 2.42824 19.1953 5.05249C16.6488 7.67674 15.0766 11.0577 14.7297 14.6558C11.2908 14.7015 7.98003 15.9362 5.38648 18.1402C2.79292 20.3441 1.0848 23.3745 0.56604 26.6919H3.69238Z" fill="#DDDFF2"/>
<path fill-rule="evenodd" clip-rule="evenodd" d="M6.7083 34.9892C6.7083 31.9591 9.01267 29.6544 12.1755 29.6544C14.7288 29.6544 16.9956 31.1603 17.396 33.7618H14.5949C14.2719 32.6467 13.2807 32.1081 12.1755 32.1081C10.5161 32.1081 9.45186 33.2955 9.46956 34.9892C9.45186 36.7002 10.557 37.8703 12.1567 37.8703C13.2807 37.8703 14.2719 37.3122 14.5905 36.1971H17.3916C16.9723 38.8958 14.6669 40.3239 12.1523 40.3239C9.01267 40.3239 6.7083 38.0193 6.7083 34.9892Z" fill="#DDDFF2"/>
<path d="M21.3946 26.7031H18.671V40.1016H21.3946V26.7031Z" fill="#DDDFF2"/>
<path fill-rule="evenodd" clip-rule="evenodd" d="M25.5871 34.9892C25.5871 36.6807 26.7686 37.7958 28.2919 37.7958C29.8153 37.7958 30.9968 36.6796 30.9968 34.9892C30.9968 33.316 29.8153 32.1826 28.2919 32.1826C26.7686 32.1826 25.5871 33.316 25.5871 34.9892ZM33.7592 34.9892C33.7592 38.0754 31.3585 40.3239 28.2919 40.3239C25.243 40.3239 22.8435 38.0571 22.8435 34.9892C22.8435 31.903 25.2773 29.6544 28.2919 29.6544C31.3209 29.6544 33.7547 31.903 33.7547 34.9892H33.7592Z" fill="#DDDFF2"/>
<path fill-rule="evenodd" clip-rule="evenodd" d="M44.7882 29.8779V40.1005H42.0634V38.6886C41.3023 39.7292 40.2735 40.324 38.8254 40.324C36.5199 40.324 35.0917 38.7814 35.0917 36.2911V29.8779H37.8153V35.7146C37.8153 37.0532 38.3297 37.7959 39.7391 37.7959C41.2448 37.7959 42.0623 36.9226 42.0623 35.2494V29.8779H44.7882Z" fill="#DDDFF2"/>
<path fill-rule="evenodd" clip-rule="evenodd" d="M54.441 34.9891C54.441 33.3159 53.2794 32.1825 51.755 32.1825C50.2305 32.1825 49.1066 33.3159 49.1066 34.9891C49.1066 36.6807 50.2504 37.7958 51.755 37.7958C53.2794 37.7958 54.441 36.6796 54.441 34.9891ZM57.1647 26.702V40.1004H54.441V38.7263C53.7175 39.6913 52.6123 40.3239 51.1454 40.3239C48.4207 40.3239 46.363 38.1304 46.363 34.9891C46.363 31.8295 48.4395 29.6544 51.1255 29.6544C51.7751 29.6415 52.4179 29.7858 52.9964 30.0744C53.575 30.3629 54.0713 30.7868 54.441 31.3081V26.702H57.1647Z" fill="#DDDFF2"/>
</svg>
