<svg width="121" height="31" viewBox="0 0 121 31" fill="none" xmlns="http://www.w3.org/2000/svg">
<path d="M96.6339 15.3745C96.6339 17.9007 94.8056 19.6889 92.5619 19.6889C90.4029 19.6889 88.4476 17.8187 88.4476 15.3745C88.4476 14.2892 88.8789 13.2483 89.6465 12.4809C90.4141 11.7134 91.4552 11.2823 92.5408 11.2823C93.6263 11.2823 94.6674 11.7134 95.4351 12.4809C96.2027 13.2483 96.6339 14.2892 96.6339 15.3745Z" fill="#DDDFF2"/>
<path d="M49.4718 14.1638L47.4266 17.653H49.4718V14.1638Z" fill="#DDDFF2"/>
<path d="M13.7898 11.0978C16.7002 11.0978 18.2877 12.6612 18.2877 15.4387H18.2824C18.2824 18.4702 16.8484 19.814 13.8109 19.814H12.2234V11.0978H13.7898Z" fill="#DDDFF2"/>
<path fill-rule="evenodd" clip-rule="evenodd" d="M0.991943 0.503174H120.992V30.5032H0.991943V0.503174ZM92.5326 7.45973C90.4272 7.45627 88.4025 8.26891 86.8839 9.72685H86.9025C86.1466 10.4513 85.5457 11.3216 85.1364 12.2852C84.7271 13.2487 84.5178 14.2853 84.5212 15.3322C84.5212 17.0218 84.928 18.5081 85.7343 19.7931H82.1583V7.78354H78.2134V23.2002H86.7859V21.1302C87.5226 21.8997 88.4096 22.51 89.3922 22.923C90.3948 23.3445 91.4745 23.5512 92.5619 23.5299C93.6266 23.5343 94.6815 23.3261 95.6647 22.9175C96.6479 22.509 97.5396 21.9083 98.2875 21.1506C99.0354 20.393 99.6245 19.4937 100.02 18.5055C100.097 18.3137 100.166 18.1192 100.228 17.9226V23.1999H104.199V14.6107L110.253 23.1999H113.746V7.78064H109.771V16.3434L103.813 7.78064H100.228V13.0394C100.151 12.7968 100.062 12.5577 99.9619 12.3228C99.5462 11.3517 98.938 10.4749 98.1738 9.74537C96.66 8.28246 94.638 7.46318 92.5326 7.45973ZM43.4574 17.2526C42.8753 18.1732 41.6053 19.6334 39.6897 19.6069C36.5676 19.5487 35.3876 17.4034 35.3876 15.4671C35.3873 14.385 35.8114 13.346 36.5687 12.573C37.3261 11.8 38.3563 11.3547 39.4384 11.3325C42.0286 11.2769 43.9575 13.7609 43.9575 13.7609L45.9842 10.4913C45.1964 9.5308 44.202 8.76035 43.075 8.23732C41.9481 7.71428 40.7177 7.45214 39.4754 7.47041C33.1254 7.6159 31.2733 12.9302 31.2733 15.4062C31.2733 20.5936 35.2685 23.1859 38.5335 23.5007C39.8683 23.6552 41.2207 23.4982 42.4846 23.0419C43.7485 22.5857 44.8893 21.8427 45.8175 20.8713H49.3841V23.1833H53.2021V7.7799H49.064C49.064 7.7799 43.9548 16.4696 43.4574 17.2526ZM30.9405 7.78064H22.1165V13.8524C21.8194 12.1121 21.0548 10.6886 19.8752 9.63233C18.1872 8.10601 16.388 7.78064 13.8109 7.78064H8.25464V23.1999L14.3666 23.2079C16.6473 23.2079 18.1739 22.901 19.9043 21.298C21.0844 20.1963 21.826 18.8231 22.1165 17.2049V23.1893H30.9405V19.8087H26.0853V17.0126L30.2896 17.01V13.6955L26.0853 13.6981V11.1798L30.9405 11.1745V7.78064ZM57.1238 23.1993V11.4596H54.0414V7.77473H64.1697V11.4596H61.0899V23.1993H57.1238ZM68.9532 17.2983H73.0358V23.1999H77.0019V7.78064H73.0358V13.6346H68.9532V7.78064H64.9871V23.1999H68.9532V17.2983Z" fill="#DDDFF2"/>
</svg>
