<svg width="13" height="19" viewBox="0 0 13 19" fill="none" xmlns="http://www.w3.org/2000/svg">
<path d="M13 5.36621V17.9639C13 18.2515 12.7669 18.4846 12.4793 18.4846H0.520674C0.233118 18.4846 0 18.2515 0 17.9639V1.25193C3.43323e-05 0.964379 0.233151 0.731262 0.520707 0.731262H8.36502C8.50313 0.731262 8.63555 0.786117 8.73316 0.883761L12.8474 4.99796C12.9523 5.10282 13 5.24204 13 5.36621ZM8.84637 2.4696V4.84557H11.2223L8.84637 2.4696ZM1.04135 17.4433H11.9587V5.88688H8.32574C8.03818 5.88688 7.80506 5.65376 7.80506 5.36621V1.77257H1.04135V17.4433Z" fill="black"/>
</svg>
