<svg width="7" height="8" viewBox="0 0 7 8" fill="none" xmlns="http://www.w3.org/2000/svg">
<path d="M6.68211 4.00018H4.77529V0.333291C4.77529 0.236022 4.7453 0.156229 4.68578 0.0936936C4.6265 0.0313407 4.55028 0 4.45768 0H2.55051C2.45784 0 2.38165 0.0313407 2.32206 0.0936936C2.26243 0.156265 2.23266 0.236022 2.23266 0.333291V4.00004H0.325628C0.180006 4.00004 0.0806523 4.06954 0.0276359 4.20833C-0.0253806 4.34044 -0.00207284 4.46179 0.0971765 4.57303L3.27549 7.90634C3.3484 7.96877 3.42448 8 3.50394 8C3.58329 8 3.65947 7.96877 3.73246 7.90634L6.90082 4.58354C6.96699 4.50025 7 4.41659 7 4.33355C7 4.23642 6.97026 4.15648 6.91049 4.09384C6.85104 4.03138 6.77485 4.00018 6.68211 4.00018Z" fill="#009688"/>
</svg>
