<svg width="81" height="33" viewBox="0 0 81 33" fill="none" xmlns="http://www.w3.org/2000/svg">
<path d="M35.1286 16.5033C35.1286 14.535 34.7307 12.6576 34.0372 10.9163C33.8537 16.648 27.6391 21.0856 23.9905 24.0223H33.1232C34.3998 21.78 35.1286 19.2219 35.1286 16.5033ZM28.5264 3.88268C25.6348 1.77227 22.0093 0.503174 18.0606 0.503174C8.63391 0.503174 0.991943 7.66704 0.991943 16.5033C0.991943 25.3395 8.63391 32.5032 18.0606 32.5032C22.3772 32.5032 26.3077 30.9892 29.3135 28.5115H16.9563L16.9187 25.1097C24.3643 19.042 28.9286 14.9385 28.9286 10.9749C28.9286 9.50179 28.33 7.64292 25.6365 7.64292C23.5036 7.64292 21.446 8.80112 21.82 13.6407H17.4803C16.395 8.02948 19.6501 3.57472 25.8603 3.57472C26.8231 3.57472 27.7137 3.68247 28.5264 3.88268Z" fill="#DDDFF2"/>
<path d="M50.9573 11.5621H54.9946C55.1326 8.68354 54.0978 4.12191 47.4383 4.12191C42.538 4.12191 38.9837 6.87204 38.9837 12.5973C38.9837 13.3737 39.0179 17.3847 39.0179 19.8753C39.0179 26.0867 43.6079 27.4449 47.4726 27.4449C49.7846 27.4449 53.1316 26.9595 54.6842 25.3746V15.4761H47.0928V19.0668H50.4747V23.4339C47.9209 24.2424 43.2624 24.5661 43.2624 19.0668V12.5973C43.2624 8.7478 45.1606 7.42169 47.265 7.42169C49.4393 7.42169 50.9573 8.45686 50.9573 11.5621ZM80.9876 21.169C81.1598 12.3063 70.3254 15.2494 70.4282 10.3005C70.4625 8.55415 71.6704 7.42169 73.6379 7.42169C75.7426 7.42169 76.984 8.58625 76.9496 11.6272H80.918C81.0218 8.87719 80.3317 4.18704 73.7759 4.18704C69.7038 4.18704 66.357 6.06354 66.2875 10.2361C66.1152 18.7429 77.0192 15.9613 76.8469 21.1048C76.7774 23.2072 75.1553 24.1451 73.3269 24.1451C71.1878 24.1451 69.4622 22.9806 69.8075 19.4871H65.8039C65.3556 24.113 67.5298 27.4128 73.2926 27.4128C78.1577 27.4128 80.918 24.8891 80.9876 21.169ZM62.758 27.1209H58.6869V4.47798H62.758V27.1209ZM62.758 27.1209H58.6869V4.47798H62.758V27.1209Z" fill="#DDDFF2"/>
</svg>
