<svg width="18" height="19" viewBox="0 0 18 19" fill="none" xmlns="http://www.w3.org/2000/svg">
<path d="M13.4472 19C13.4465 19 11.8382 18.9981 11.3196 18.9981C8.64417 18.9981 6.72698 18.7778 5.28641 18.3046C4.97952 18.2026 4.71132 18.0892 4.47476 17.9893C4.05594 17.8125 3.72535 17.6729 3.38237 17.6729H1.98493C1.56183 17.6729 0.949114 17.63 0.516684 17.2589C0.0535186 16.8616 0 16.2854 0 15.8866L0.000305802 9.82993C0.000305802 9.27386 0.180434 8.80434 0.521424 8.47224C0.766386 8.23335 1.21931 7.94865 1.98493 7.94865C2.02239 7.94865 2.06383 7.94909 2.10878 7.94952C2.5455 7.95416 3.26402 7.96141 3.72887 7.57887C3.75716 7.5274 3.78468 7.47913 3.80945 7.43579C3.82612 7.40434 3.84187 7.37853 3.85364 7.35896C3.85777 7.35229 3.86205 7.34563 3.86603 7.33823C3.89814 7.2659 3.93622 7.20183 3.98117 7.145C4.22889 6.75202 4.50764 6.38557 4.75 6.13493C5.28534 5.57974 5.78154 5.29258 6.21932 5.03905C6.73325 4.74145 7.10467 4.52647 7.42792 3.92809L7.45055 3.88648C7.93451 2.99194 8.13482 2.62172 8.25593 2.17757C8.29691 2.02695 8.31495 1.86866 8.30945 1.70718C8.26556 1.08038 8.59233 0.118286 9.6783 0.003479L9.71072 0H9.74329C10.4043 0 10.9577 0.148437 11.3883 0.440964C12.0291 0.876419 12.3541 1.58396 12.3541 2.54373C12.3541 4.25569 11.9125 5.6254 11.5314 6.48849L16.0666 7.02831C17.153 7.08775 17.9922 8.02055 17.9423 9.12035C17.9159 9.70352 17.6608 10.2293 17.2726 10.5965C17.6396 10.938 17.8347 11.3998 17.8133 11.9312C17.8062 12.4638 17.6339 12.8894 17.301 13.1963C17.1724 13.3149 17.0285 13.4068 16.8764 13.4778C17.1339 13.8005 17.2729 14.1933 17.2729 14.6092C17.2729 15.1764 17.0464 15.6941 16.6351 16.0666C16.2999 16.3702 15.8615 16.5603 15.3968 16.6101C15.4692 16.7998 15.5027 17.0062 15.4936 17.2235C15.4927 17.3101 15.484 17.4698 15.4708 17.5456C15.4109 17.8883 15.2653 18.1598 15.0256 18.376C14.5731 18.7842 14.0272 19 13.4472 19ZM1.98493 9.06194C1.41687 9.06194 1.17466 9.29155 1.17466 9.83007L1.17435 15.8867C1.17435 16.0852 1.19698 16.3412 1.30463 16.4337C1.35952 16.4806 1.521 16.5596 1.98493 16.5596H3.38237C3.97505 16.5596 4.44984 16.7602 4.95261 16.9725C5.17922 17.0683 5.41348 17.1671 5.67297 17.2535C6.96613 17.6781 8.81375 17.885 11.3196 17.885C11.8385 17.885 13.448 17.8869 13.448 17.8869C13.724 17.8869 13.9827 17.78 14.2164 17.5694C14.246 17.5426 14.2863 17.5063 14.3109 17.3717C14.3142 17.3386 14.3187 17.2547 14.3194 17.2203L14.3188 17.2083L14.32 17.1825C14.3303 16.9658 14.2176 16.8065 13.9852 16.7086C13.7105 16.5931 13.5454 16.3251 13.5741 16.0414C13.6104 15.6829 13.9483 15.4159 14.3269 15.4461L15.1164 15.5094C15.3825 15.5184 15.64 15.4284 15.8239 15.2618C16.0036 15.099 16.0987 14.8733 16.0987 14.6092C16.0987 14.2517 15.8236 13.8469 15.2198 13.8024C15.048 13.7899 14.8867 13.7103 14.7774 13.5841C14.6681 13.4582 14.6171 13.2931 14.6373 13.1312C14.676 12.8223 14.9536 12.5933 15.2808 12.6001C15.6413 12.6065 16.2447 12.6175 16.4823 12.3983C16.5204 12.3634 16.6359 12.2568 16.6391 11.9121L16.6395 11.8933C16.6617 11.4017 16.2489 11.2099 15.8985 11.1353H15.8982C15.6074 11.0732 15.4074 10.8142 15.4328 10.5328C15.4583 10.2515 15.7019 10.0287 15.9996 10.0146C16.401 9.99532 16.7464 9.57262 16.7692 9.07252C16.7917 8.5769 16.4417 8.15826 15.9891 8.13942L15.9417 8.13551L11.3233 7.58582C10.9692 7.54364 10.6641 7.35128 10.4864 7.05803C10.3086 6.76478 10.2869 6.41804 10.4268 6.10681C10.708 5.48132 11.1797 4.18684 11.1797 2.54388C11.1797 1.29912 10.4398 1.11966 9.77999 1.11357C9.65062 1.133 9.58487 1.18793 9.53487 1.31419C9.48441 1.44161 9.47906 1.58904 9.4815 1.63934L9.48273 1.65267L9.48242 1.65746C9.49313 1.92969 9.463 2.19844 9.39266 2.45618C9.23899 3.01992 9.00595 3.45074 8.49539 4.39456L8.47291 4.43602C7.99904 5.31316 7.40529 5.65686 6.83126 5.98925C6.44211 6.21466 6.0395 6.44761 5.61624 6.88669C5.42189 7.0876 5.1806 7.40868 4.9705 7.746L4.93365 7.80167C4.91025 7.85023 4.88778 7.88719 4.87218 7.91299C4.8679 7.92024 4.86316 7.92735 4.85903 7.93517L4.84649 7.95851C4.81086 8.02041 4.76927 8.09376 4.72982 8.16841L4.68716 8.24872L4.62003 8.31236C3.80991 9.08035 2.65223 9.06846 2.09594 9.06281C2.05573 9.06223 2.01857 9.06194 1.98493 9.06194ZM14.3127 17.3615C14.3124 17.3631 14.3121 17.3649 14.3118 17.3666C14.3119 17.3657 14.3121 17.3647 14.3124 17.3639L14.3127 17.3615ZM14.3132 17.3594C14.313 17.3601 14.3129 17.3608 14.3127 17.3615L14.3132 17.3594ZM14.32 17.2301C14.32 17.2315 14.3202 17.2328 14.3202 17.234L14.32 17.2301ZM15.3103 12.6924H15.3112C15.3109 12.6924 15.3106 12.6924 15.3103 12.6924ZM16.0597 11.1263C16.0594 11.1263 16.0591 11.1263 16.0586 11.1263H16.0597Z" fill="#2A2D34"/>
</svg>
