<svg width="131" height="21" viewBox="0 0 131 21" fill="none" xmlns="http://www.w3.org/2000/svg">
<path d="M85.4227 1.02094H74.7864C74.7624 1.01816 74.7381 1.02072 74.7153 1.0284C74.6925 1.03609 74.6718 1.0487 74.6547 1.0653C74.6376 1.0819 74.6247 1.10205 74.6168 1.12423C74.6089 1.14641 74.6062 1.17004 74.6091 1.19335C74.3222 5.86771 73.4896 10.4952 72.1273 14.9865V15.1589C72.1506 15.1806 72.1786 15.197 72.2093 15.207C72.2399 15.2169 72.2725 15.2201 72.3045 15.2163H75.9682C76.0273 15.2163 76.1455 15.1589 76.1455 15.1014C77.2275 11.5789 77.9403 7.95891 78.2727 4.2968H81.7591V15.0439C81.7562 15.0672 81.7589 15.0909 81.7668 15.1131C81.7747 15.1352 81.7876 15.1554 81.8047 15.172C81.8218 15.1886 81.8425 15.2012 81.8653 15.2089C81.8881 15.2166 81.9124 15.2191 81.9364 15.2163H85.4227C85.4467 15.2191 85.471 15.2166 85.4938 15.2089C85.5166 15.2012 85.5373 15.1886 85.5544 15.172C85.5715 15.1554 85.5844 15.1352 85.5923 15.1131C85.6002 15.0909 85.6029 15.0672 85.6 15.0439V1.25082C85.6 1.13588 85.5409 1.02094 85.4227 1.02094Z" fill="#DDDFF2"/>
<path d="M130.389 1.02094H126.902C126.878 1.01816 126.854 1.02072 126.831 1.0284C126.809 1.03609 126.788 1.0487 126.771 1.0653C126.754 1.0819 126.741 1.10205 126.733 1.12423C126.725 1.14641 126.722 1.17004 126.725 1.19335V11.883C125.957 12.0949 125.16 12.1918 124.362 12.1704C122.057 12.1704 121.525 11.4807 121.525 8.4922V1.25082C121.528 1.22751 121.525 1.20388 121.518 1.1817C121.51 1.15952 121.497 1.13937 121.48 1.12277C121.462 1.10617 121.442 1.09356 121.419 1.08587C121.396 1.07819 121.372 1.07564 121.348 1.07841H117.862C117.838 1.07564 117.813 1.07819 117.79 1.08587C117.768 1.09356 117.747 1.10617 117.73 1.12277C117.713 1.13937 117.7 1.15952 117.692 1.1817C117.684 1.20388 117.681 1.22751 117.684 1.25082V8.95197C117.684 13.7796 119.339 15.6761 123.652 15.6761C125.969 15.6276 128.263 15.2201 130.448 14.4692C130.507 14.4692 130.566 14.3543 130.566 14.2968V1.25082C130.566 1.13588 130.507 1.02094 130.389 1.02094Z" fill="#DDDFF2"/>
<path d="M56.8227 1.07714H53.2773C53.1591 1.07714 53.1 1.13461 53.1 1.19208C52.249 4.39821 51.1831 7.5467 49.9091 10.6174L46.3637 1.13461C46.3637 1.07714 46.2455 1.01967 46.1864 1.01967H42.6409C42.5818 1.01967 42.5227 1.07714 42.4637 1.07714C42.4502 1.08735 42.4392 1.10042 42.4317 1.11536C42.4242 1.1303 42.4203 1.14671 42.4203 1.16334C42.4203 1.17998 42.4242 1.19639 42.4317 1.21133C42.4392 1.22627 42.4502 1.23934 42.4637 1.24955L47.7818 15.3875C47.25 16.4794 46.7182 17.399 46.2455 18.261C45.8909 18.8932 45.5364 19.5254 45.1818 20.2151C45.1227 20.2725 45.1818 20.33 45.1818 20.3875C45.1818 20.445 45.3 20.5024 45.3591 20.5024H49.2C49.2591 20.5024 49.3182 20.445 49.3773 20.3875C50.0273 19.1806 50.8546 17.4565 51.6227 15.7323C53.7008 11.0227 55.5155 6.2072 57.0591 1.30702C57.0642 1.27571 57.0615 1.24369 57.0514 1.21355C57.0413 1.18342 57.0241 1.15603 57.001 1.13362C56.978 1.11121 56.9498 1.09442 56.9188 1.0846C56.8879 1.07478 56.8549 1.07223 56.8227 1.07714Z" fill="#DDDFF2"/>
<path d="M69.4662 11.9406C69.4636 11.911 69.4503 11.8832 69.4286 11.8622C69.407 11.8412 69.3785 11.8282 69.348 11.8256H69.1708C68.0229 12.1797 66.8292 12.3732 65.6253 12.4003C63.2026 12.4003 62.0799 11.7682 62.0799 8.14746C62.0799 5.2739 62.4344 3.89459 65.6253 3.89459C66.5906 3.89245 67.5493 4.04786 68.4617 4.35436C68.5799 4.35436 68.639 4.35436 68.698 4.23942C69.1117 3.49229 69.5844 2.63022 70.1162 1.4808V1.30838C70.1136 1.27877 70.1003 1.25101 70.0786 1.22999C70.057 1.20897 70.0285 1.19603 69.998 1.19344C68.5069 0.736006 66.9525 0.503423 65.3889 0.503785C60.3071 0.503785 58.0617 2.80264 58.0617 8.03252C58.0617 13.2624 60.3071 15.6762 65.3889 15.6762C67.0716 15.6575 68.7429 15.406 70.3526 14.9291C70.4708 14.8716 70.4708 14.8141 70.4708 14.6992L69.4662 11.9406Z" fill="#DDDFF2"/>
<path d="M102.497 1.07714H98.9518C98.8927 1.07714 98.7745 1.13461 98.7745 1.19208C97.9235 4.39821 96.8576 7.5467 95.5836 10.6174L92.0382 1.13461C92.0382 1.07714 91.92 1.01967 91.8609 1.01967H88.3154C88.2563 1.01967 88.1973 1.07714 88.1382 1.07714C88.1247 1.08735 88.1137 1.10042 88.1062 1.11536C88.0987 1.1303 88.0948 1.14671 88.0948 1.16334C88.0948 1.17998 88.0987 1.19639 88.1062 1.21133C88.1137 1.22627 88.1247 1.23934 88.1382 1.24955L93.4563 15.3875C92.9245 16.4794 92.3927 17.3415 91.92 18.261C91.5654 18.8932 91.2109 19.5254 90.8563 20.2151C90.7973 20.2725 90.8563 20.33 90.8563 20.3875C90.8563 20.445 90.9745 20.5024 91.0336 20.5024H94.8745C94.9336 20.5024 94.9927 20.445 95.0518 20.3875C95.7018 19.1806 96.5291 17.4565 97.2972 15.7323C99.3835 11.0324 101.179 6.21534 102.675 1.30702C102.678 1.27582 102.675 1.24418 102.665 1.21437C102.655 1.18455 102.638 1.15731 102.615 1.13461C102.615 1.07714 102.556 1.07714 102.497 1.07714Z" fill="#DDDFF2"/>
<path d="M115.498 1.02094H105.216C105.192 1.01816 105.168 1.02072 105.145 1.0284C105.123 1.03609 105.102 1.0487 105.085 1.0653C105.068 1.0819 105.055 1.10205 105.047 1.12423C105.039 1.14641 105.036 1.17004 105.039 1.19335V15.0439C105.036 15.0672 105.039 15.0909 105.047 15.1131C105.055 15.1352 105.068 15.1554 105.085 15.172C105.102 15.1886 105.123 15.2012 105.145 15.2089C105.168 15.2166 105.192 15.2191 105.216 15.2163H108.703C108.727 15.2191 108.751 15.2166 108.774 15.2089C108.797 15.2012 108.817 15.1886 108.834 15.172C108.852 15.1554 108.864 15.1352 108.872 15.1131C108.88 15.0909 108.883 15.0672 108.88 15.0439V4.35427H114.257C114.316 4.35427 114.435 4.2968 114.435 4.23933C114.848 3.31979 115.262 2.28531 115.676 1.30829V1.13588C115.616 1.07841 115.557 1.02094 115.498 1.02094Z" fill="#DDDFF2"/>
<path d="M19.0614 12.514C16.7569 12.514 16.0478 11.8818 16.0478 8.14615C16.0478 4.12317 16.816 3.77834 19.0614 3.77834C21.3069 3.77834 22.1341 4.12317 22.1341 8.14615C22.1341 11.9393 21.366 12.514 19.0614 12.514ZM19.0614 0.617418C14.0387 0.617418 12.0887 2.68638 12.0887 8.08868C12.0887 13.491 14.0387 15.6749 19.0614 15.6749C24.0841 15.6749 26.0932 13.5485 26.0932 8.08868C26.0932 2.74385 24.0841 0.617418 19.0614 0.617418Z" fill="#DDDFF2"/>
<path d="M39.9188 11.9417C39.9161 11.9121 39.9028 11.8843 39.8812 11.8633C39.8596 11.8423 39.8311 11.8293 39.8006 11.8267H39.6233C38.4755 12.1808 37.2817 12.3743 36.0779 12.4014C33.6552 12.4014 32.5324 11.7693 32.5324 8.14857C32.5324 5.27501 32.887 3.8957 36.0779 3.8957C37.0431 3.89355 38.0019 4.04897 38.9143 4.35547C38.9609 4.36138 39.0084 4.3536 39.0505 4.33313C39.0926 4.31265 39.1275 4.2804 39.1506 4.24053C39.5643 3.4934 40.037 2.63133 40.5688 1.48191V1.30949C40.5661 1.27988 40.5528 1.25212 40.5312 1.2311C40.5096 1.21008 40.4811 1.19714 40.4506 1.19455C38.9714 0.779624 37.4401 0.566857 35.9006 0.562365C30.8188 0.562365 28.5733 2.86122 28.5733 8.0911C28.5733 13.321 30.8188 15.7348 35.9006 15.7348C37.5832 15.7161 39.2546 15.4646 40.8643 14.9877C40.9824 14.9302 40.9824 14.8727 40.9824 14.7578L39.9188 11.9417Z" fill="#DDDFF2"/>
<path d="M11.0254 1.01967H0.743575C0.625393 1.01967 0.566302 1.13461 0.566302 1.24955V15.1001C0.563452 15.1234 0.566076 15.1471 0.573976 15.1693C0.581877 15.1914 0.594849 15.2116 0.611915 15.2282C0.628982 15.2448 0.649697 15.2574 0.672503 15.2651C0.695308 15.2728 0.719609 15.2753 0.743575 15.2725H4.22994C4.2539 15.2753 4.27821 15.2728 4.30101 15.2651C4.32382 15.2574 4.34453 15.2448 4.3616 15.2282C4.37866 15.2116 4.39164 15.1914 4.39954 15.1693C4.40744 15.1471 4.41006 15.1234 4.40721 15.1001V4.353H9.78448C9.84357 4.353 9.90267 4.29553 9.96176 4.23806C10.3754 3.31852 10.789 2.28403 11.2027 1.30702V1.13461C11.1436 1.07714 11.0845 1.01967 11.0254 1.01967Z" fill="#DDDFF2"/>
</svg>
