<svg width="18" height="18" viewBox="0 0 18 18" fill="none" xmlns="http://www.w3.org/2000/svg">
<path fill-rule="evenodd" clip-rule="evenodd" d="M9 1.62161C11.4035 1.62161 11.6874 1.63079 12.6372 1.67406C13.5145 1.71418 13.9906 1.86078 14.3084 1.98405C14.6964 2.13385 15.0488 2.36322 15.3429 2.65741C15.6369 2.95159 15.8662 3.30408 16.0159 3.69219C16.1391 4.00931 16.2865 4.48583 16.3264 5.36334C16.3699 6.31241 16.3784 6.59714 16.3784 9.0003C16.3784 11.4035 16.3699 11.6881 16.3264 12.6371C16.2865 13.5147 16.1391 13.9907 16.0159 14.3084C15.8662 14.6965 15.6369 15.049 15.3429 15.3432C15.0488 15.6374 14.6964 15.8668 14.3084 16.0166C13.9906 16.1398 13.5145 16.2864 12.6372 16.3264C11.6874 16.3697 11.4035 16.3789 9 16.3789C6.59654 16.3789 6.31257 16.3697 5.36278 16.3264C4.4855 16.2864 4.00941 16.1398 3.6916 16.0166C3.30358 15.8668 2.9512 15.6374 2.65713 15.3432C2.36307 15.049 2.13384 14.6965 1.98416 14.3084C1.86091 13.9913 1.71348 13.5147 1.6736 12.6371C1.6301 11.6881 1.62165 11.4035 1.62165 9.0003C1.62165 6.59714 1.6301 6.31241 1.6736 5.36334C1.71348 4.48583 1.86091 4.00979 1.98416 3.69219C2.13384 3.30408 2.36307 2.95159 2.65713 2.65741C2.9512 2.36322 3.30358 2.13385 3.6916 1.98405C4.00941 1.86078 4.4855 1.71418 5.36278 1.67406C6.31257 1.63079 6.59654 1.62161 9 1.62161ZM9 0C6.55545 0 6.24974 0.0102732 5.28907 0.0541429C4.54242 0.0691325 3.80369 0.210601 3.10432 0.472537C2.50652 0.703753 1.96363 1.05733 1.51041 1.5106C1.0572 1.96387 0.703667 2.50685 0.47248 3.10472C0.21061 3.8041 0.0692295 4.54284 0.0543711 5.2895C0.00966113 6.24944 0 6.55592 0 8.9997C0 11.4435 0.00966113 11.7506 0.0543711 12.7105C0.0692291 13.4571 0.21061 14.1958 0.47248 14.8952C0.703692 15.493 1.05723 16.036 1.51044 16.4893C1.96365 16.9426 2.50653 17.2962 3.10432 17.5275C3.80369 17.7894 4.54242 17.9309 5.28907 17.9459C6.24974 17.9896 6.55545 18 9 18C11.4445 18 11.7503 17.9896 12.7109 17.9459C13.4576 17.9309 14.1963 17.7894 14.8957 17.5275C15.4935 17.2962 16.0364 16.9426 16.4896 16.4893C16.9428 16.036 17.2963 15.493 17.5275 14.8952C17.7894 14.1958 17.9308 13.4571 17.9456 12.7105C17.9903 11.7506 18 11.444 18 8.9997C18 6.55544 17.9903 6.24884 17.9456 5.2895C17.9308 4.54284 17.7894 3.8041 17.5275 3.10472C17.2963 2.50685 16.9428 1.96387 16.4896 1.5106C16.0364 1.05733 15.4935 0.703753 14.8957 0.472537C14.1963 0.210601 13.4576 0.0691325 12.7109 0.0541429C11.7503 0.0102732 11.4445 0 9 0ZM9 4.37851C8.08605 4.37868 7.19267 4.64989 6.43283 5.15784C5.67299 5.66579 5.08081 6.38767 4.73117 7.23221C4.38154 8.07674 4.29015 9.006 4.46855 9.90249C4.64696 10.799 5.08715 11.6224 5.73347 12.2687C6.37979 12.915 7.2032 13.3551 8.0996 13.5333C8.996 13.7116 9.92513 13.62 10.7695 13.2702C11.6139 12.9204 12.3356 12.328 12.8433 11.5679C13.351 10.8079 13.622 9.91437 13.622 9.0003C13.6218 7.77445 13.1348 6.59888 12.268 5.73215C11.4012 4.86542 10.2257 4.37851 9 4.37851ZM9 12.0004C8.40672 12.0002 7.82679 11.8242 7.33355 11.4944C6.84032 11.1647 6.45591 10.6961 6.22896 10.1479C6.00201 9.59963 5.9427 8.9964 6.05853 8.41446C6.17436 7.83252 6.46012 7.29799 6.87969 6.87848C7.29925 6.45896 7.83377 6.17329 8.41566 6.05759C8.99756 5.94189 9.6007 6.00135 10.1488 6.22847C10.6969 6.45558 11.1654 6.84014 11.495 7.33352C11.8245 7.8269 12.0004 8.40694 12.0004 9.0003C12.0002 9.79604 11.6841 10.5591 11.1214 11.1217C10.5587 11.6844 9.79564 12.0004 9 12.0004ZM14.8848 4.1959C14.8849 4.40961 14.8216 4.61853 14.7029 4.79626C14.5843 4.97398 14.4156 5.11252 14.2182 5.19435C14.0208 5.27618 13.8036 5.29762 13.594 5.25598C13.3844 5.21433 13.1919 5.11146 13.0408 4.96037C12.8896 4.80929 12.7867 4.61677 12.745 4.40718C12.7033 4.19759 12.7247 3.98033 12.8064 3.78289C12.8882 3.58545 13.0266 3.41668 13.2043 3.29795C13.382 3.17921 13.5908 3.11584 13.8045 3.11584C14.0909 3.11597 14.3656 3.22979 14.5681 3.4323C14.7707 3.63481 14.8846 3.90946 14.8848 4.1959Z" fill="#2A2D34"/>
</svg>
