<svg width="18" height="16" viewBox="0 0 18 16" fill="none" xmlns="http://www.w3.org/2000/svg">
<path d="M8.43484 14.0634L8.41291 14.0423L8.38972 14.0224C6.03243 12.0077 4.16471 10.3879 2.87668 8.87379C1.59894 7.37177 1 6.09616 1 4.78261C1 2.67139 2.67958 1 4.95 1C6.19371 1 7.44886 1.57275 8.24771 2.48492L9 3.34392L9.75229 2.48492C10.5511 1.57275 11.8063 1 13.05 1C15.3204 1 17 2.67139 17 4.78261C17 6.09616 16.4011 7.37177 15.1233 8.87379C13.8353 10.3879 11.9676 12.0077 9.61028 14.0224L9.58709 14.0423L9.56516 14.0634L9 14.6095L8.43484 14.0634Z" stroke="#2A2D34" stroke-width="2"/>
</svg>
