<svg width="15" height="15" viewBox="0 0 15 15" fill="none" xmlns="http://www.w3.org/2000/svg">
<mask id="path-1-inside-1" fill="white">
<path fill-rule="evenodd" clip-rule="evenodd" d="M8.84241 14.0002C7.96004 14.0467 7.07744 13.9128 6.24841 13.6071C5.41939 13.3015 4.66127 12.8305 4.02026 12.2224C3.37926 11.6142 2.8688 10.8818 2.51996 10.07C2.17112 9.25822 1.99121 8.38379 1.99121 7.5002C1.99121 6.61662 2.17112 5.74219 2.51996 4.93038C2.8688 4.11857 3.37926 3.38618 4.02026 2.77804C4.66127 2.16989 5.41939 1.69895 6.24841 1.39327C7.07744 1.08759 7.96004 0.953755 8.84241 1.0002C9.8073 0.994543 10.7629 1.18891 11.6489 1.57101C12.535 1.9531 13.3322 2.51483 13.9904 3.22042"/>
</mask>
<path d="M1.99121 7.5002H-0.00878906H1.99121ZM8.84241 1.0002L8.73727 2.99744L8.79567 3.00051L8.85414 3.00017L8.84241 1.0002ZM8.73727 12.003C8.12625 12.0351 7.51482 11.9425 6.94032 11.7306L5.55651 15.4836C6.64006 15.8832 7.79384 16.0582 8.94755 15.9974L8.73727 12.003ZM6.94032 11.7306C6.36561 11.5187 5.84053 11.1924 5.3968 10.7715L2.64372 13.6733C3.48201 14.4686 4.47316 15.0842 5.55651 15.4836L6.94032 11.7306ZM5.3968 10.7715C4.95283 10.3502 4.59918 9.84289 4.35749 9.28043L0.682422 10.8596C1.13841 11.9208 1.80569 12.8782 2.64372 13.6733L5.3968 10.7715ZM4.35749 9.28043C4.11585 8.71808 3.99121 8.11231 3.99121 7.5002H-0.00878906C-0.00878906 8.65528 0.226393 9.79836 0.682422 10.8596L4.35749 9.28043ZM3.99121 7.5002C3.99121 6.8881 4.11585 6.28233 4.35749 5.71997L0.682422 4.14079C0.226393 5.20205 -0.00878906 6.34513 -0.00878906 7.5002H3.99121ZM4.35749 5.71997C4.59918 5.15752 4.95283 4.65016 5.3968 4.22895L2.64372 1.32713C1.80569 2.1222 1.13841 3.07962 0.682422 4.14079L4.35749 5.71997ZM5.3968 4.22895C5.84053 3.80797 6.36561 3.48168 6.94032 3.26977L5.55651 -0.483233C4.47316 -0.0837809 3.48201 0.531813 2.64372 1.32713L5.3968 4.22895ZM6.94032 3.26977C7.51482 3.05794 8.12625 2.96527 8.73727 2.99744L8.94755 -0.99703C7.79384 -1.05776 6.64006 -0.882761 5.55651 -0.483233L6.94032 3.26977ZM8.85414 3.00017C9.54268 2.99613 10.2246 3.13483 10.857 3.40752L12.4409 -0.265509C11.3012 -0.757001 10.0719 -1.00704 8.83067 -0.999761L8.85414 3.00017ZM10.857 3.40752C11.4891 3.6801 12.058 4.08095 12.5279 4.58465L15.4529 1.85619C14.6064 0.948707 13.5809 0.226088 12.4409 -0.265509L10.857 3.40752Z" fill="#606EDB" mask="url(#path-1-inside-1)"/>
</svg>
