<svg width="98" height="129" viewBox="0 0 98 129" fill="none" xmlns="http://www.w3.org/2000/svg">
<path d="M16.0131 52.5674H35.549V38.3878H0V128.999C19.5359 128.999 35.549 111.707 35.549 90.6103V86.8061C24.0196 80.5809 16.0131 67.7846 16.0131 52.5674Z" fill="white"/>
<path d="M98 36.12C98 16.2703 82.8453 0 64.3567 0H39.2V36.12H98Z" fill="white"/>
<path d="M42.2743 52.5677H35.5488V86.8063C40.3527 89.573 45.7972 90.9564 51.5619 90.9564H77.8233C77.8233 69.8599 62.1305 52.5677 42.2743 52.5677Z" fill="white"/>
<path d="M16.0116 52.5677C16.0116 67.439 24.0181 80.5811 35.5475 86.8063V52.5677H16.0116Z" fill="white"/>
<path d="M0 38.3887H35.549V0C16.0131 0 0 17.2922 0 38.3887ZM19.5359 30.4343C15.6928 30.4343 12.8105 26.9759 12.8105 23.1716C12.8105 19.3673 15.6928 15.9088 19.5359 15.9088C23.3791 15.9088 26.2614 19.0214 26.2614 23.1716C26.2614 27.3217 23.0588 30.4343 19.5359 30.4343Z" fill="white"/>
</svg>
