<svg width="116" height="24" viewBox="0 0 116 24" fill="none" xmlns="http://www.w3.org/2000/svg">
<g clip-path="url(#clip0)">
<path class="dont-remove" d="M30.5502 8.29844H29.2585C28.7418 8.29844 28.4834 8.04009 28.4834 7.4588C28.4834 6.87751 28.7418 6.61915 29.2585 6.61915H30.5502V5.39198C30.5502 4.03563 30.9377 2.93764 31.6482 2.16258C32.3587 1.38753 33.3275 1 34.6193 1C35.4589 1 36.0402 1.19376 36.4277 1.5167C36.6215 1.71047 36.6861 1.90423 36.6861 2.22717C36.6861 2.48552 36.6215 2.67929 36.4923 2.80846C36.3631 2.93764 36.1694 3.00223 35.9756 3.00223C35.911 3.00223 35.7173 2.93764 35.3943 2.87305C35.136 2.80846 34.813 2.74388 34.4901 2.74388C33.2629 2.74388 32.617 3.58352 32.617 5.19822V6.61915H34.6838C35.2005 6.61915 35.4589 6.87751 35.4589 7.4588C35.4589 8.04009 35.2005 8.29844 34.6838 8.29844H32.617V17.4053C32.617 18.0512 32.2295 18.3742 31.5836 18.3742C30.8732 18.3742 30.5502 18.0512 30.5502 17.4053V8.29844Z" fill="#2A2D34"/>
<path class="dont-remove" d="M37.332 3.00248C37.332 2.61495 37.4612 2.22742 37.7196 1.96907C37.9779 1.77531 38.3009 1.58154 38.753 1.58154C39.1405 1.58154 39.528 1.71072 39.7864 1.96907C40.0447 2.22742 40.1739 2.55036 40.1739 2.93789C40.1739 3.32542 40.0447 3.71295 39.7864 3.9713C39.528 4.22965 39.1405 4.35883 38.6884 4.35883C38.3009 4.35883 37.9779 4.22965 37.7196 3.9713C37.4612 3.77753 37.332 3.45459 37.332 3.00248ZM37.655 17.4056V7.52364C37.655 6.87776 37.9779 6.55482 38.6884 6.55482C39.3988 6.55482 39.7218 6.87776 39.7218 7.52364V17.4056C39.7218 18.0515 39.3988 18.3744 38.6884 18.3744C38.0425 18.3744 37.655 18.0515 37.655 17.4056Z" fill="#2A2D34"/>
<path class="dont-remove" d="M46.5037 12.3673L43.4035 8.68574C43.0159 8.23362 42.8222 7.91068 42.8222 7.71692C42.8222 7.39398 42.9514 7.13563 43.2097 6.87727C43.4681 6.68351 43.7264 6.55433 43.9848 6.55433C44.1139 6.55433 44.3077 6.61892 44.5015 6.7481C44.6306 6.87727 44.8244 7.07104 45.0182 7.32939L47.86 10.9463L50.5081 7.39398C50.6373 7.20021 50.7665 7.00645 51.0249 6.7481C51.154 6.61892 51.3478 6.48975 51.6061 6.48975C51.8645 6.48975 52.1228 6.61892 52.3812 6.81269C52.6395 7.00645 52.7041 7.2648 52.7041 7.52315C52.7041 7.58774 52.7041 7.65233 52.6396 7.78151C52.575 7.91068 52.575 7.91068 52.5104 7.97527C52.4458 8.03986 52.3812 8.10444 52.3166 8.23362C52.252 8.3628 52.1228 8.42738 52.1228 8.55656L49.0872 12.2381L52.3812 16.2425C52.7687 16.6946 52.9625 17.0176 52.9625 17.2759C52.9625 17.5989 52.8333 17.8572 52.575 18.051C52.3166 18.2448 52.0583 18.3739 51.7353 18.3739C51.477 18.3739 51.3478 18.3093 51.2186 18.1802C51.154 18.1802 50.9603 17.9218 50.7019 17.5989L47.6017 13.7236L44.6952 17.5989C44.5661 17.8572 44.3723 18.051 44.2431 18.2448C44.1139 18.3093 43.9202 18.3739 43.7264 18.3739C43.4681 18.3739 43.2097 18.3093 42.9514 18.1156C42.693 17.9218 42.6284 17.6635 42.6284 17.4051C42.6284 17.2114 42.8222 16.8238 43.2097 16.4363L46.5037 12.3673Z" fill="#2A2D34"/>
<path class="dont-remove" d="M56.1913 8.29844H54.8996C54.3829 8.29844 54.1245 8.04009 54.1245 7.4588C54.1245 6.87751 54.3829 6.61915 54.8996 6.61915H56.1913V5.39198C56.1913 4.03563 56.5789 2.93764 57.2893 2.16258C57.9998 1.38753 58.9686 1 60.2604 1C61.1 1 61.6813 1.19376 62.0688 1.5167C62.2626 1.71047 62.3272 1.90423 62.3272 2.22717C62.3272 2.48552 62.2626 2.67929 62.1334 2.80846C62.0042 2.93764 61.8105 3.00223 61.6167 3.00223C61.5521 3.00223 61.3584 2.93764 61.0354 2.87305C60.7771 2.80846 60.4541 2.74388 60.1312 2.74388C58.904 2.74388 58.2581 3.58352 58.2581 5.19822V6.61915H60.325C60.8417 6.61915 61.1 6.87751 61.1 7.4588C61.1 8.04009 60.8417 8.29844 60.325 8.29844H58.2581V17.4053C58.2581 18.0512 57.8706 18.3742 57.2247 18.3742C56.5143 18.3742 56.1913 18.0512 56.1913 17.4053V8.29844Z" fill="#2A2D34"/>
<path class="dont-remove" d="M63.2964 15.532V2.09773C63.2964 1.45185 63.6193 1.12891 64.3298 1.12891C65.0403 1.12891 65.3632 1.45185 65.3632 2.09773V15.0153C65.3632 16.1133 65.6861 16.6946 66.332 16.6946C66.3966 16.6946 66.5258 16.6946 66.7196 16.6946C66.8487 16.6946 66.9779 16.6946 67.0425 16.6946C67.2363 16.6946 67.3654 16.7592 67.4946 16.8884C67.6238 17.0175 67.6884 17.1467 67.6884 17.3405C67.6884 17.6634 67.6238 17.8572 67.43 17.9864C67.1717 18.3093 66.655 18.4385 65.9445 18.4385C64.136 18.3739 63.2964 17.4697 63.2964 15.532Z" fill="#2A2D34"/>
<path class="dont-remove" d="M76.2784 12.3029V10.882C76.2784 9.91318 76.0846 9.20271 75.6325 8.81518C75.245 8.42766 74.5345 8.1693 73.5011 8.1693C72.7907 8.1693 72.0802 8.29848 71.4343 8.49224C70.7884 8.7506 70.4009 8.81518 70.3363 8.81518C70.1426 8.81518 69.9488 8.7506 69.8196 8.62142C69.6904 8.49224 69.6259 8.29848 69.6259 8.04013C69.6259 7.78178 69.6904 7.58801 69.8842 7.39425C70.1426 7.1359 70.6593 6.94213 71.4343 6.68378C72.2094 6.42543 72.9844 6.36084 73.8887 6.36084C76.8597 6.36084 78.3452 7.71719 78.3452 10.3653V14.6281C78.3452 15.4032 78.4098 16.1136 78.4744 16.6303C78.539 17.147 78.6036 17.47 78.6036 17.47C78.6036 17.7283 78.539 17.9221 78.3452 18.0513C78.1515 18.1804 77.9577 18.245 77.6993 18.245C77.0535 18.245 76.6659 17.7283 76.4722 16.7595H76.4076C76.1492 17.0824 75.8909 17.3408 75.5034 17.5346C74.7283 18.0513 73.8241 18.3096 72.8553 18.3096C71.6281 18.3096 70.7239 17.9867 70.0134 17.4054C69.3029 16.7595 68.98 15.9844 68.98 15.0156C68.98 13.9822 69.4321 13.2072 70.2717 12.6905C71.1114 12.1738 72.274 11.8508 73.8241 11.8508C74.47 11.8508 75.0512 11.9154 75.5679 11.98C75.8909 12.1738 76.0846 12.2383 76.2784 12.3029ZM76.2784 15.274V13.853C76.1492 13.7885 75.8909 13.7239 75.6971 13.7239C75.1804 13.6593 74.6637 13.5947 74.147 13.5947C72.2094 13.5947 71.3051 14.1114 71.3051 15.1448C71.3051 15.6615 71.4989 16.049 71.8864 16.372C72.274 16.6949 72.7907 16.8887 73.5011 16.8887C74.2116 16.8887 74.9221 16.6303 75.6325 16.1136C75.8263 15.7907 76.0201 15.5323 76.2784 15.274Z" fill="#2A2D34"/>
<path class="dont-remove" d="M82.2852 17.4054V7.39425C82.2852 6.81296 82.6081 6.49002 83.1894 6.49002C83.7707 6.49002 84.0936 6.81296 84.1582 7.39425L84.2874 8.1693C84.5457 7.78178 84.8041 7.52342 85.1916 7.26507C85.9021 6.61919 86.8063 6.36084 87.9689 6.36084C89.3252 6.36084 90.4232 6.74837 91.1983 7.58801C91.9734 8.42765 92.3609 9.59024 92.3609 11.1404V17.3408C92.3609 17.9867 91.9734 18.3096 91.2629 18.3096C90.5524 18.3096 90.2295 17.9867 90.2295 17.3408V11.3987C90.2295 9.20271 89.3252 8.10472 87.5168 8.10472C86.6771 8.10472 85.9021 8.42766 85.2562 9.07354C84.9979 9.33189 84.7395 9.65483 84.4811 10.0424V17.2762C84.4811 17.9221 84.1582 18.245 83.4477 18.245C82.6727 18.3742 82.2852 18.0513 82.2852 17.4054Z" fill="#2A2D34"/>
<path class="dont-remove" d="M95.2676 12.8841C95.2676 10.8819 95.7843 9.33175 96.8823 8.16917C97.9803 7.00659 99.4012 6.42529 101.145 6.42529C102.372 6.42529 103.212 6.68365 103.664 7.13576C103.858 7.32952 103.922 7.58788 103.922 7.84623C103.922 8.03999 103.858 8.23376 103.729 8.36293C103.599 8.49211 103.406 8.5567 103.147 8.5567C103.083 8.5567 102.76 8.49211 102.308 8.29834C101.856 8.16917 101.403 8.03999 100.887 8.03999C99.8533 8.03999 99.0137 8.42752 98.3032 9.20258C97.6573 9.97763 97.3344 11.0756 97.3344 12.4966C97.3344 13.7883 97.6573 14.7571 98.3678 15.5322C99.0783 16.3073 99.9179 16.6302 101.016 16.6302C101.533 16.6302 102.049 16.5656 102.437 16.4364C102.824 16.3073 103.147 16.2427 103.212 16.2427C103.664 16.2427 103.858 16.501 103.858 16.9531C103.858 17.2115 103.729 17.4052 103.535 17.6636C103.018 18.1803 101.985 18.4387 100.499 18.4387C98.8845 18.4387 97.5282 17.922 96.5593 16.8885C95.7843 15.9197 95.2676 14.5634 95.2676 12.8841Z" fill="#2A2D34"/>
<path class="dont-remove" d="M114.773 12.6901H108.12V12.7547C108.12 13.9819 108.508 14.9507 109.218 15.6612C109.864 16.3716 110.833 16.6946 111.931 16.6946C112.641 16.6946 113.287 16.5654 113.868 16.3716C114.45 16.1779 114.773 16.0487 114.837 16.0487C115.031 16.0487 115.225 16.1133 115.354 16.2424C115.483 16.3716 115.548 16.5008 115.548 16.6946C115.548 16.9529 115.419 17.1467 115.225 17.405C114.966 17.6634 114.514 17.8571 113.868 18.0509C113.223 18.2447 112.448 18.3739 111.543 18.3739C109.864 18.3739 108.508 17.8571 107.474 16.8237C106.441 15.7903 105.989 14.434 105.989 12.6901C105.989 10.6879 106.505 9.13777 107.539 7.97519C108.572 6.8126 109.864 6.2959 111.479 6.2959C112.835 6.2959 113.933 6.74801 114.773 7.65225C115.612 8.55648 116 9.71906 116 11.2692C116 12.238 115.548 12.6901 114.773 12.6901ZM108.185 11.2046H113.998C113.804 9.13777 112.835 8.10436 111.156 8.10436C110.445 8.10436 109.799 8.36271 109.218 8.87942C108.701 9.39612 108.314 10.1712 108.185 11.2046Z" fill="#2A2D34"/>
<path class="dont-remove" d="M12.7451 0H7.32026C3.26797 0 0 3.15315 0 7H20C20 3.15315 16.732 0 12.7451 0ZM3.98693 5.54955C3.20261 5.54955 2.61438 4.91892 2.61438 4.22522C2.61438 3.53153 3.20261 2.9009 3.98693 2.9009C4.77124 2.9009 5.35948 3.46847 5.35948 4.22522C5.35948 4.98198 4.70588 5.54955 3.98693 5.54955Z" fill="#6777E4"/>
<path class="dont-remove" d="M15.6946 16.9224C15.6946 12.9974 12.4652 9.78027 8.52529 9.78027H7.16895V16.1502C8.13776 16.665 9.23576 16.9224 10.3983 16.9224H15.6946Z" fill="#6777E4"/>
<path class="dont-remove" d="M3.2294 9.78016H7.16926V0C3.2294 0 0 3.21716 0 7.14209V24C3.93987 24 7.16926 20.7828 7.16926 16.8579V16.1501C4.8441 14.992 3.2294 12.6113 3.2294 9.78016ZM2.58352 4.31099C2.58352 3.60322 3.16481 2.95979 3.93987 2.95979C4.71492 2.95979 5.29621 3.53887 5.29621 4.31099C5.29621 5.08311 4.65033 5.6622 3.93987 5.6622C3.2294 5.6622 2.58352 5.01877 2.58352 4.31099Z" fill="#6777E4"/>
<path class="dont-remove" d="M3.22949 9.78027C3.22949 12.547 4.84419 14.9921 7.16936 16.1502V9.78027H3.22949Z" fill="#BC97FF"/>
<path class="dont-remove" d="M3.22949 9.78027C3.22949 12.547 4.84419 14.9921 7.16936 16.1502V9.78027H3.22949Z" fill="#E5E5E5"/>
</g>
<defs>
<clipPath id="clip0">
<rect class="dont-remove" width="116" height="24" fill="white"/>
</clipPath>
</defs>
</svg>
