<svg width="14" height="14" viewBox="0 0 14 14" fill="none" xmlns="http://www.w3.org/2000/svg">
<path d="M9.95892 8.95785L9.6529 9.30906L9.98162 9.63914L13.4328 13.1046C13.4329 13.1046 13.4329 13.1046 13.4329 13.1046C13.5245 13.1967 13.5225 13.338 13.4257 13.428L13.4256 13.428C13.3773 13.4729 13.3116 13.5 13.2368 13.5C13.1576 13.5 13.0903 13.4707 13.0405 13.4209C13.0405 13.4209 13.0405 13.4208 13.0405 13.4208L9.56327 9.92931L9.271 9.63584L8.92826 9.86838C8.0248 10.4814 6.96792 10.805 5.85474 10.805C2.88591 10.805 0.5 8.47667 0.5 5.65249C0.5 2.82832 2.88591 0.5 5.85474 0.5C8.82356 0.5 11.2095 2.82832 11.2095 5.65249C11.2095 6.86336 10.7685 8.02865 9.95892 8.95785ZM10.6821 5.65249C10.6821 3.05617 8.50035 0.974564 5.85474 0.974564C3.20912 0.974564 1.02732 3.05617 1.02732 5.65249C1.02732 8.24882 3.20912 10.3304 5.85474 10.3304C8.50035 10.3304 10.6821 8.24882 10.6821 5.65249Z" fill="#E83131" stroke="#2A2D34"/>
</svg>
