<svg width="116" height="39" viewBox="0 0 116 39" fill="none" xmlns="http://www.w3.org/2000/svg">
<path d="M83.6587 3.6007H80.9663V21.8634H83.6587V3.6007Z" fill="#DDDFF2"/>
<path d="M88.214 18.5651C87.2066 18.5651 86.3953 19.3742 86.3953 20.3789C86.3953 21.3836 87.2066 22.1927 88.214 22.1927C89.2214 22.1927 90.0326 21.3836 90.0326 20.3789C90.0326 19.3742 89.2214 18.5651 88.214 18.5651Z" fill="#DDDFF2"/>
<path d="M95.2931 15.5065C95.2931 13.3282 96.6036 11.461 99.1444 11.461H100.749V8.91807H99.1444C97.1564 8.91807 96.247 9.54935 95.3199 10.5985L95.3021 10.6252V8.91807H92.6365V21.8549H95.2931C95.2931 21.846 95.2931 16.3868 95.2931 15.5065Z" fill="#DDDFF2"/>
<path d="M78.0425 8.91807H75.3502V21.8549H78.0425V8.91807Z" fill="#DDDFF2"/>
<path d="M76.6968 6.77506C77.7042 6.77506 78.5155 5.96596 78.5155 4.96124C78.5155 3.95652 77.6953 3.14742 76.6968 3.14742C75.6894 3.14742 74.8781 3.95652 74.8781 4.96124C74.8781 5.96596 75.6983 6.77506 76.6968 6.77506Z" fill="#DDDFF2"/>
<path d="M69.7877 10.2251C68.7535 9.17594 67.1666 8.58911 65.5887 8.58911C61.8265 8.58911 58.7687 11.6388 58.7687 15.3909C58.7687 19.1431 61.8265 22.1928 65.5887 22.1928C67.1666 22.1928 68.8338 21.517 69.7877 20.4501V21.8638H72.4354V8.91809H69.7877V10.2251ZM65.6778 19.4898C63.3599 19.4898 61.5947 17.7116 61.5947 15.3909C61.5947 13.0703 63.3599 11.3098 65.6778 11.3098C67.9957 11.3098 69.8233 12.9636 69.8233 15.3909C69.8233 17.8183 67.9957 19.4898 65.6778 19.4898Z" fill="#DDDFF2"/>
<path d="M108.202 22.1927C109.406 22.1927 110.939 21.5437 111.902 20.4412C111.911 20.9302 111.902 21.3748 111.902 21.8549H114.55V8.91807H111.893V16.0222C111.893 17.8627 110.485 19.5787 108.372 19.5787C106.526 19.5787 105.216 18.245 105.216 16.3334V8.92696H102.559V16.5557C102.568 19.9699 104.413 22.1927 108.202 22.1927Z" fill="#DDDFF2"/>
<path d="M50.9944 8.58911C49.2292 8.58911 47.4997 9.38933 46.4478 10.6519C45.4849 9.38044 44.0853 8.58911 42.2042 8.58911C40.6708 8.58911 39.5743 9.27374 38.9859 9.825V8.91809H36.3382V21.8549H38.9859V14.2884C38.9859 12.5991 40.3677 11.2298 42.0527 11.2298C43.7376 11.2298 45.1194 12.608 45.1194 14.2884V21.8549H47.7672V14.2884C47.7672 12.5991 49.149 11.2298 50.8339 11.2298C52.5189 11.2298 53.9007 12.608 53.9007 14.2884V21.8549H56.5484V14.2884C56.5663 10.8208 54.3108 8.58911 50.9944 8.58911Z" fill="#DDDFF2"/>
<path d="M85.9591 27.8384L85.9413 27.8562V26.8515H84.2474V34.4446H85.9413C85.9413 34.4357 85.9413 31.4038 85.9413 30.8881C85.9413 29.6078 86.708 28.5141 88.1968 28.5141H89.1329V26.8515H88.1968C87.0378 26.8515 86.5029 27.2249 85.9591 27.8384Z" fill="#DDDFF2"/>
<path d="M104.172 31.0127C104.172 32.2308 103.191 32.9598 102.237 32.9598C101.23 32.9598 100.517 32.2308 100.517 31.1905V26.8604H98.8141V31.315C98.8141 33.4222 100.027 34.6403 102.131 34.6403C102.817 34.6403 103.628 34.2935 104.163 33.769C104.163 33.9023 104.163 34.0357 104.163 34.1691V34.4536H105.857V26.8604H104.154L104.172 31.0127Z" fill="#DDDFF2"/>
<path d="M93.5458 26.6651C91.3438 26.6651 89.5519 28.4522 89.5519 30.6484C89.5519 32.8445 91.3438 34.6317 93.5458 34.6317C95.7478 34.6317 97.5397 32.8445 97.5397 30.6484C97.5397 28.4522 95.7567 26.6651 93.5458 26.6651ZM93.5458 32.9423C92.2799 32.9423 91.2458 31.9109 91.2458 30.6484C91.2458 29.3858 92.2799 28.3544 93.5458 28.3544C94.8117 28.3544 95.8459 29.3858 95.8459 30.6484C95.8459 31.9109 94.8206 32.9423 93.5458 32.9423Z" fill="#DDDFF2"/>
<path d="M111.571 26.6651C110.698 26.6651 109.851 26.9674 109.253 27.4831V26.8518H107.559V37.059H109.253V33.7692C109.824 34.3027 110.706 34.6405 111.571 34.6405C113.773 34.6405 115.565 32.8534 115.565 30.6572C115.565 28.4522 113.773 26.6651 111.571 26.6651ZM111.518 32.9067C110.189 32.9067 109.227 31.9554 109.227 30.6484C109.227 29.3413 110.189 28.3989 111.518 28.3989C112.802 28.3989 113.773 29.368 113.773 30.6484C113.773 31.9376 112.802 32.9067 111.518 32.9067Z" fill="#DDDFF2"/>
<path d="M80.8687 27.4831C80.2714 26.9674 79.4245 26.6651 78.5508 26.6651C76.3489 26.6651 74.557 28.4522 74.557 30.6484C74.557 32.8445 76.3489 34.6317 78.5508 34.6317C79.4156 34.6317 80.2982 34.2938 80.8687 33.7603V33.9115C80.842 35.4675 80.0842 36.2588 78.6043 36.2588H78.5865C77.7485 36.2588 77.0086 35.9387 76.3221 35.2718L76.2597 35.2096L75.0294 36.3833L75.0829 36.4455C75.7159 37.1835 76.9996 38.0281 78.5419 38.0281C78.5687 38.0281 78.5954 38.0281 78.6222 38.0281C80.0664 38.0015 82.4912 37.4413 82.5626 33.9737V26.8429H80.8687V27.4831ZM78.6043 32.9068C77.3206 32.9068 76.3489 31.9376 76.3489 30.6484C76.3489 29.368 77.3206 28.3989 78.6043 28.3989C79.9327 28.3989 80.8955 29.3413 80.8955 30.6484C80.8866 31.9554 79.9327 32.9068 78.6043 32.9068Z" fill="#DDDFF2"/>
<path d="M18.5075 15.1598C18.5075 17.516 16.5908 19.4276 14.2283 19.4276C11.8658 19.4276 9.94912 17.516 9.94912 15.1598C9.94912 12.8036 11.8658 10.8919 14.2283 10.8919C16.5908 10.8919 18.5075 12.8125 18.5075 15.1598ZM14.2283 0.978149C6.38313 0.978149 0 7.34431 0 15.1687C0 22.993 6.38313 29.3503 14.2283 29.3503C17.0989 29.3503 19.8715 28.4967 22.2429 26.8785L22.2875 26.8518L20.3707 24.629L20.3351 24.6468C18.5075 25.8115 16.4036 26.4339 14.2283 26.4339C7.99674 26.4339 2.92412 21.3748 2.92412 15.1598C2.92412 8.94475 7.99674 3.8856 14.2283 3.8856C20.4599 3.8856 25.5325 8.94475 25.5325 15.1598C25.5325 15.9689 25.4434 16.778 25.2651 17.5871C24.9085 19.0541 23.8832 19.4987 23.1076 19.4365C22.332 19.3742 21.4227 18.823 21.4138 17.4715V15.1598C21.4138 11.2031 18.1866 7.98449 14.2194 7.98449C10.2522 7.98449 7.02501 11.2031 7.02501 15.1598C7.02501 19.1164 10.2522 22.335 14.2194 22.335C16.145 22.335 17.9548 21.5793 19.3188 20.2189C20.1122 21.4459 21.4049 22.2194 22.8759 22.335C23.0007 22.3439 23.1344 22.3528 23.2592 22.3528C24.2933 22.3528 25.3186 22.0061 26.1477 21.3837C27.0035 20.7346 27.6365 19.801 27.9841 18.6807C28.0376 18.5029 28.1446 18.085 28.1446 18.085V18.0672C28.3497 17.1692 28.4477 16.2712 28.4477 15.1598C28.4566 7.34431 22.0735 0.978149 14.2283 0.978149Z" fill="#DDDFF2"/>
</svg>
