<svg width="26" height="24" viewBox="0 0 26 24" fill="none" xmlns="http://www.w3.org/2000/svg">
<path d="M12.5061 1.08531C12.6557 0.624426 13.3077 0.624421 13.4573 1.08531L15.6453 7.82776C15.846 8.44605 16.4221 8.86475 17.0721 8.86475H24.1555C24.6397 8.86475 24.8412 9.48424 24.4496 9.76908L18.7169 13.9392C18.1918 14.3212 17.9721 14.9976 18.1726 15.6152L20.3617 22.3611C20.5113 22.8219 19.9838 23.2047 19.592 22.9198L13.8641 18.7531C13.338 18.3704 12.6253 18.3704 12.0993 18.7531L6.37133 22.9198C5.97959 23.2047 5.45209 22.8219 5.60162 22.3611L7.79081 15.6152C7.99124 14.9976 7.77153 14.3212 7.24644 13.9392L1.51377 9.76908C1.1222 9.48424 1.32368 8.86475 1.8079 8.86475H8.89127C9.54131 8.86475 10.1174 8.44605 10.318 7.82776L12.5061 1.08531Z" stroke="#E83131"/>
</svg>
