<svg width="22" height="22" viewBox="0 0 22 22" fill="none" xmlns="http://www.w3.org/2000/svg">
<g clip-path="url(#clip0)">
<path d="M19.3445 17.5077C19.2798 17.4658 18.7931 17.1248 18.3057 16.0933C17.4108 14.1992 17.2229 11.5309 17.2229 9.62607C17.2229 9.61778 17.2227 9.60957 17.2224 9.60132C17.2127 7.08383 15.7052 4.91365 13.548 3.93993V2.45077C13.548 1.0994 12.4504 0 11.1013 0H10.8985C9.54936 0 8.45177 1.0994 8.45177 2.45077V3.93985C6.28735 4.9167 4.77686 7.09796 4.77686 9.62607C4.77686 11.5309 4.58901 14.1992 3.69401 16.0933C3.2067 17.1248 2.71999 17.4657 2.65528 17.5077C2.38277 17.6339 2.24841 17.9252 2.3111 18.2204C2.3744 18.5186 2.65309 18.7241 2.95744 18.7241H7.68172C7.70811 20.5349 9.18597 22 10.9999 22C12.8138 22 14.2917 20.5349 14.3181 18.7241H19.0424C19.3467 18.7241 19.6254 18.5186 19.6887 18.2204C19.7513 17.9252 19.617 17.6338 19.3445 17.5077ZM9.74087 2.45077C9.74087 1.81135 10.2602 1.29117 10.8985 1.29117H11.1013C11.7396 1.29117 12.259 1.81135 12.259 2.45077V3.52142C11.8521 3.43733 11.431 3.39307 10.9997 3.39307C10.5686 3.39307 10.1476 3.43728 9.74092 3.52129V2.45077H9.74087ZM10.9999 20.7088C9.89676 20.7088 8.99695 19.8229 8.97079 18.7242H13.029C13.0028 19.8229 12.103 20.7088 10.9999 20.7088ZM13.5952 17.4329C13.5951 17.4329 4.42633 17.4329 4.42633 17.4329C4.53783 17.2592 4.65131 17.0624 4.7641 16.8401C5.62795 15.1366 6.06597 12.7095 6.06597 9.62607C6.06597 6.90112 8.27925 4.68424 10.9997 4.68424C13.7201 4.68424 15.9334 6.90112 15.9334 9.62822C15.9334 9.63617 15.9335 9.64408 15.9338 9.65198C15.9363 12.723 16.3743 15.1415 17.2357 16.8401C17.3485 17.0625 17.462 17.2592 17.5735 17.4329H13.5952Z" fill="#2A2D34"/>
</g>
<defs>
<clipPath id="clip0">
<rect width="22" height="22" fill="white"/>
</clipPath>
</defs>
</svg>
