<svg width="14" height="15" viewBox="0 0 14 15" fill="none" xmlns="http://www.w3.org/2000/svg">
<path d="M12.3551 8.23125C12.3821 7.99687 12.4001 7.75313 12.4001 7.5C12.4001 7.24687 12.3821 7.00313 12.3461 6.76875L13.8672 5.53125C14.0022 5.41875 14.0382 5.2125 13.9572 5.05312L12.5171 2.45625C12.4271 2.2875 12.2381 2.23125 12.0761 2.2875L10.2851 3.0375C9.90707 2.7375 9.51106 2.49375 9.07005 2.30625L8.80004 0.31875C8.77304 0.13125 8.62004 0 8.44003 0H5.55997C5.37996 0 5.23596 0.13125 5.20896 0.31875L4.93895 2.30625C4.49794 2.49375 4.09293 2.74687 3.72392 3.0375L1.93288 2.2875C1.77088 2.22187 1.58187 2.2875 1.49187 2.45625L0.051837 5.05312C-0.0381651 5.22187 -0.00216411 5.41875 0.141839 5.53125L1.66288 6.76875C1.62687 7.00313 1.59987 7.25625 1.59987 7.5C1.59987 7.74375 1.61787 7.99687 1.65387 8.23125L0.132839 9.46875C-0.00216433 9.58125 -0.0381651 9.7875 0.0428368 9.94687L1.48287 12.5437C1.57287 12.7125 1.76188 12.7688 1.92388 12.7125L3.71492 11.9625C4.09293 12.2625 4.48894 12.5063 4.92995 12.6938L5.19996 14.6812C5.23596 14.8687 5.37996 15 5.55997 15H8.44003C8.62004 15 8.77304 14.8687 8.79104 14.6812L9.06105 12.6938C9.50206 12.5063 9.90707 12.2531 10.2761 11.9625L12.0671 12.7125C12.2291 12.7781 12.4181 12.7125 12.5081 12.5437L13.9482 9.94687C14.0382 9.77812 14.0022 9.58125 13.8582 9.46875L12.3551 8.23125ZM7 10.3125C5.51497 10.3125 4.29994 9.04688 4.29994 7.5C4.29994 5.95312 5.51497 4.6875 7 4.6875C8.48503 4.6875 9.70006 5.95312 9.70006 7.5C9.70006 9.04688 8.48503 10.3125 7 10.3125Z" fill="#2A2D34" fill-opacity="0.5"/>
</svg>
