<svg width="16" height="16" viewBox="0 0 16 16" fill="none" xmlns="http://www.w3.org/2000/svg">
<g opacity="0.5">
<path d="M12 8.00004C12 6.43116 11.0934 5.07558 9.77783 4.42224V6.3867L11.96 8.56891C11.9867 8.38224 12 8.19116 12 8.00004Z" fill="#2A2D34"/>
<path d="M14.2222 8.00001C14.2222 8.83555 14.04 9.62222 13.7422 10.3467L15.0889 11.6933C15.6667 10.5867 16 9.33334 16 8.00001C16 4.19555 13.3378 1.01334 9.77783 0.204468V2.04001C12.3467 2.80447 14.2222 5.18222 14.2222 8.00001Z" fill="#2A2D34"/>
<path d="M7.99988 0.888916L6.14209 2.74671L7.99988 4.6045V0.888916Z" fill="#2A2D34"/>
<path d="M1.13333 0L0 1.13333L4.2 5.33333H0V10.6667H3.55554L8 15.1111V9.13333L11.7822 12.9155C11.1867 13.3733 10.5155 13.7422 9.77775 13.9644V15.8C11 15.52 12.1155 14.96 13.0533 14.1911L14.8667 16L16 14.8667L8 6.86667L1.13333 0Z" fill="#2A2D34"/>
</g>
</svg>
