<svg width="18" height="18" viewBox="0 0 18 18" fill="none" xmlns="http://www.w3.org/2000/svg">
<path d="M17.9841 6.85058C17.9461 6.72818 17.8453 6.63891 17.7238 6.62031L11.8953 5.73136L9.28877 0.188678C9.23464 0.0730368 9.12252 0 9.00009 0C8.87765 0 8.76521 0.0730368 8.7114 0.188678L6.10453 5.7317L0.27605 6.62065C0.154583 6.63925 0.0540581 6.72818 0.0157171 6.85092C-0.0219796 6.97299 0.0092732 7.10756 0.0972321 7.19717L4.31507 11.5118L3.31917 17.6042C3.29855 17.731 3.34817 17.8592 3.44708 17.9349C3.54664 18.0114 3.67841 18.0212 3.78635 17.9606L9.00009 15.0845L14.2132 17.9606C14.2602 17.9867 14.3121 17.9995 14.3633 17.9995C14.43 17.9995 14.4964 17.9779 14.5528 17.9349C14.652 17.8592 14.7016 17.731 14.6807 17.6042L13.6851 11.5121L17.9029 7.19717C17.9906 7.10689 18.0222 6.97265 17.9841 6.85058Z" fill="#E83131"/>
</svg>
