<svg width="17" height="17" viewBox="0 0 17 17" fill="none" xmlns="http://www.w3.org/2000/svg">
<path d="M4.75 16H2.5C2.10218 16 1.72064 15.842 1.43934 15.5607C1.15804 15.2794 1 14.8978 1 14.5V9.25C1 8.85218 1.15804 8.47064 1.43934 8.18934C1.72064 7.90804 2.10218 7.75 2.5 7.75H4.75M10 6.25V3.25C10 2.65326 9.76295 2.08097 9.34099 1.65901C8.91903 1.23705 8.34674 1 7.75 1L4.75 7.75V16H13.21C13.5717 16.0041 13.9228 15.8773 14.1984 15.643C14.4741 15.4087 14.6558 15.0827 14.71 14.725L15.745 7.975C15.7776 7.76002 15.7631 7.54051 15.7025 7.33169C15.6419 7.12287 15.5366 6.92972 15.3939 6.76564C15.2512 6.60155 15.0746 6.47045 14.8762 6.38141C14.6778 6.29238 14.4624 6.24754 14.245 6.25H10Z" stroke="white" stroke-width="1.5" stroke-linecap="round" stroke-linejoin="round"/>
</svg>
