<svg width="18" height="15" viewBox="0 0 18 15" fill="none" xmlns="http://www.w3.org/2000/svg">
<path fill-rule="evenodd" clip-rule="evenodd" d="M18 1.702C17.3261 1.99601 16.6114 2.18904 15.8795 2.27465C16.6505 1.82023 17.2274 1.10525 17.5027 0.262972C16.7778 0.686472 15.9848 0.984897 15.1578 1.14536C14.601 0.56272 13.8647 0.176974 13.0628 0.0477761C12.261 -0.0814215 11.4382 0.0531288 10.7218 0.430618C10.0054 0.808107 9.43523 1.4075 9.09951 2.13611C8.7638 2.86472 8.68123 3.68195 8.86456 4.46141C7.39641 4.38911 5.9601 4.01357 4.6489 3.35918C3.3377 2.70479 2.18093 1.78618 1.25368 0.662982C0.781194 1.46331 0.636285 2.41089 0.848471 3.31274C1.06066 4.21459 1.61397 5.00289 2.39574 5.51708C1.80954 5.49909 1.23625 5.34312 0.72382 5.06223V5.10811C0.723862 5.94757 1.01875 6.76117 1.5585 7.41095C2.09824 8.06074 2.8496 8.50669 3.68517 8.67319C3.14136 8.81861 2.57103 8.83996 2.01758 8.73561C2.25372 9.45801 2.71319 10.0897 3.33176 10.5424C3.95032 10.995 4.69707 11.2461 5.46762 11.2604C4.15947 12.2714 2.54391 12.8197 0.88093 12.817C0.586524 12.8171 0.29237 12.8 0 12.766C1.68872 13.8346 3.65421 14.4018 5.66157 14.3998C12.4533 14.3998 16.1677 8.85938 16.1677 4.05479C16.1677 3.8972 16.1645 3.74057 16.1569 3.58447C16.88 3.06984 17.5041 2.43237 18 1.702Z" fill="#2A2D34"/>
</svg>
