<svg width="18" height="10" viewBox="0 0 18 10" fill="none" xmlns="http://www.w3.org/2000/svg">
<path fill-rule="evenodd" clip-rule="evenodd" d="M8.80701 9.70978H9.88277C9.88277 9.70978 10.2078 9.67579 10.3739 9.506C10.5265 9.35004 10.5216 9.05729 10.5216 9.05729C10.5216 9.05729 10.5007 7.68656 11.1705 7.48456C11.8312 7.28568 12.6794 8.80934 13.5782 9.39545C14.258 9.83871 14.7745 9.74173 14.7745 9.74173L17.1784 9.70978C17.1784 9.70978 18.4358 9.636 17.8395 8.69746C17.7907 8.62064 17.4919 8.00303 16.0522 6.73374C14.5448 5.40539 14.7469 5.62024 16.5625 3.32238C17.6681 1.92292 18.1102 1.06869 17.9718 0.70288C17.8403 0.354285 17.0268 0.446273 17.0268 0.446273L14.3203 0.462334C14.2003 0.448777 14.0788 0.469104 13.9708 0.520775C13.8681 0.592144 13.786 0.687008 13.7321 0.796564C13.4517 1.48713 13.1176 2.15691 12.7324 2.80034C11.5273 4.74344 11.0452 4.84641 10.8483 4.7256C10.39 4.44419 10.5045 3.59594 10.5045 2.99315C10.5045 1.10965 10.8052 0.324573 9.91875 0.121322C9.62459 0.0538696 9.40784 0.00943729 8.65537 0.00203176C7.68963 -0.00689056 6.87244 0.00488682 6.40991 0.220272C6.10203 0.363029 5.86433 0.682448 6.0092 0.700828C6.18771 0.723223 6.59302 0.804504 6.8078 1.08199C7.08524 1.4404 7.07547 2.24501 7.07547 2.24501C7.07547 2.24501 7.23519 4.46185 6.70332 4.73711C6.3385 4.92599 5.83811 4.54082 4.76358 2.77732C4.39884 2.16398 4.07613 1.52894 3.79746 0.876151C3.74789 0.765315 3.67143 0.667177 3.57433 0.589744C3.4485 0.510514 3.30707 0.456308 3.15859 0.430392L0.586541 0.446273C0.586541 0.446273 0.200584 0.456535 0.0588095 0.615798C-0.0673687 0.757663 0.0487571 1.05085 0.0487571 1.05085C0.0487571 1.05085 2.06216 5.52397 4.34239 7.77828C6.43339 9.84523 8.8072 9.70961 8.8072 9.70961L8.80701 9.70978Z" fill="#2A2D34"/>
</svg>
