<svg width="48" height="49" viewBox="0 0 48 49" fill="none" xmlns="http://www.w3.org/2000/svg">
<path fill-rule="evenodd" clip-rule="evenodd" d="M31.361 0.503174H16.639C3.20045 0.503174 0 3.70363 0 17.1421V31.8642C0 45.3027 3.20045 48.5032 16.639 48.5032H31.361C44.7995 48.5032 48 45.3027 48 31.8642V17.1421C48 3.70363 44.7995 0.503174 31.361 0.503174ZM38.2522 15.7538C39.3122 15.7538 39.5357 16.2991 39.3122 17.0408C38.8685 19.0796 34.6013 25.0876 34.6013 25.0876C34.2321 25.6803 34.0831 25.9682 34.6013 26.6455C34.7852 26.8968 35.1658 27.2699 35.6022 27.6976C36.0657 28.152 36.5922 28.6681 37.0126 29.1653C38.5163 30.8586 39.678 32.2777 39.9658 33.2666C40.2537 34.2555 39.7525 34.7534 38.7534 34.7534H35.2549C34.3149 34.7534 33.8415 34.2267 32.8206 33.091C32.3886 32.6104 31.8585 32.0208 31.1536 31.3158C29.0775 29.3143 28.1868 29.0535 27.6686 29.0535C26.9642 29.0535 26.7542 29.2398 26.7542 30.2558V33.4054C26.7542 34.2623 26.4765 34.7601 24.2548 34.7601C20.5464 34.7601 16.4687 32.508 13.5765 28.3558C9.23809 22.2767 8.05273 17.6775 8.05273 16.7495C8.05273 16.2314 8.25255 15.7606 9.25163 15.7606H12.7535C13.6408 15.7606 13.9795 16.1467 14.3182 17.1153C16.0386 22.1006 18.9173 26.4593 20.1027 26.4593C20.5497 26.4593 20.753 26.2527 20.753 25.1249V19.9703C20.6734 18.5021 20.1599 17.868 19.7796 17.3985C19.5449 17.1088 19.361 16.8817 19.361 16.5599C19.3658 16.4482 19.3927 16.3386 19.4402 16.2374C19.4877 16.1362 19.5548 16.0455 19.6377 15.9705C19.7206 15.8955 19.8175 15.8377 19.923 15.8005C20.0284 15.7633 20.1401 15.7474 20.2517 15.7538H25.7382C26.4934 15.7538 26.7542 16.1501 26.7542 17.0408V23.9768C26.7542 24.732 27.076 24.9928 27.2961 24.9928C27.7431 24.9928 28.1123 24.732 28.9285 23.9158C31.4516 21.0981 33.2296 16.7597 33.2296 16.7597C33.3396 16.449 33.5479 16.1827 33.8229 16.0011C34.098 15.8196 34.4248 15.7328 34.7537 15.7538H38.2522Z" fill="#DDDFF2"/>
</svg>
