<svg width="20" height="20" viewBox="0 0 20 20" fill="none" xmlns="http://www.w3.org/2000/svg">
<g clip-path="url(#clip0)">
<path fill-rule="evenodd" clip-rule="evenodd" d="M1.55003 0L0.270028 1.29L4.17003 5.19H1.82003C1.5815 5.18868 1.34505 5.23453 1.1243 5.3249C0.903545 5.41527 0.70283 5.54838 0.533695 5.71659C0.36456 5.88479 0.230342 6.08477 0.138756 6.30503C0.0471705 6.52528 2.414e-05 6.76146 2.77806e-05 7V12.45C-0.00129844 12.6894 0.0448719 12.9266 0.135866 13.1481C0.22686 13.3695 0.360869 13.5706 0.530137 13.7399C0.699404 13.9092 0.900567 14.0432 1.12198 14.1342C1.34339 14.2252 1.58065 14.2713 1.82003 14.27H5.24003L11.82 17.56V12.84L18.45 19.47L19.73 18.18L1.55003 0ZM11.82 7.72V1.9L7.94003 3.84L11.82 7.72ZM14.51 10.39L16.06 12C16.263 11.2742 16.364 10.5237 16.36 9.77C16.3855 7.71443 15.5942 5.73276 14.16 4.26L12.72 5.37C13.3107 5.93013 13.7784 6.60699 14.0935 7.35759C14.4085 8.10818 14.564 8.91609 14.55 9.73C14.55 10 14.53 10.19 14.51 10.41V10.39ZM17.51 13.39L18.89 14.77C19.628 13.1927 20.0071 11.4714 20 9.73C20.0466 6.86065 18.9701 4.0867 17 2L15.55 3.11C16.413 3.9785 17.0909 5.01288 17.5429 6.15068C17.995 7.28849 18.2117 8.5061 18.18 9.73C18.1889 10.9887 17.9581 12.2376 17.5 13.41L17.51 13.39Z" fill="white"/>
</g>
<defs>
<clipPath id="clip0">
<rect width="20" height="19.47" fill="white"/>
</clipPath>
</defs>
</svg>
