<svg width="20" height="20" viewBox="0 0 20 20" fill="none" xmlns="http://www.w3.org/2000/svg">
<g clip-path="url(#clip0)">
<path fill-rule="evenodd" clip-rule="evenodd" d="M5.24003 5.1899L11.82 1.8999V17.5699L5.24003 14.2799H1.82003C1.58065 14.2812 1.34339 14.2351 1.12198 14.1441C0.900567 14.0531 0.699404 13.9191 0.530137 13.7498C0.360869 13.5805 0.22686 13.3794 0.135866 13.158C0.0448719 12.9365 -0.00129844 12.6993 2.77806e-05 12.4599V6.9999C2.414e-05 6.76137 0.0471705 6.52518 0.138756 6.30493C0.230342 6.08467 0.36456 5.8847 0.533695 5.71649C0.70283 5.54829 0.903545 5.41517 1.1243 5.3248C1.34505 5.23443 1.5815 5.18858 1.82003 5.1899H5.24003ZM17 1.9999C18.9774 4.09407 20.0545 6.88023 20 9.7599C20.0571 12.643 18.9798 15.4333 17 17.5299L15.57 16.3799C16.4358 15.5135 17.1156 14.4795 17.5678 13.3412C18.0201 12.2029 18.2352 10.9842 18.2 9.7599C18.2317 8.53601 18.015 7.31839 17.5629 6.18059C17.1109 5.04278 16.433 4.0084 15.57 3.1399L17 1.9999ZM16.38 9.7599C16.4055 7.70434 15.6142 5.72266 14.18 4.2499L12.72 5.3699C13.3107 5.93003 13.7784 6.6069 14.0935 7.35749C14.4085 8.10808 14.564 8.91599 14.55 9.7299C14.5642 10.5453 14.4088 11.3548 14.0938 12.107C13.7788 12.8593 13.311 13.5379 12.72 14.0999L14.16 15.2399C14.8706 14.511 15.4307 13.6492 15.8082 12.7038C16.1856 11.7583 16.3732 10.7478 16.36 9.7299L16.38 9.7599Z" fill="white"/>
</g>
<defs>
<clipPath id="clip0">
<rect width="20" height="20" fill="white"/>
</clipPath>
</defs>
</svg>
