<svg width="20" height="20" viewBox="0 0 20 20" fill="none" xmlns="http://www.w3.org/2000/svg">
<g clip-path="url(#clip0)">
<path fill-rule="evenodd" clip-rule="evenodd" d="M11.82 1.8999L5.24003 5.1899H1.82003C1.5815 5.18858 1.34505 5.23443 1.1243 5.3248C0.903545 5.41517 0.70283 5.54829 0.533695 5.71649C0.36456 5.8847 0.230342 6.08467 0.138756 6.30493C0.0471705 6.52518 2.414e-05 6.76137 2.77806e-05 6.9999V12.4499C-0.00129844 12.6893 0.0448719 12.9265 0.135866 13.148C0.22686 13.3694 0.360869 13.5705 0.530137 13.7398C0.699404 13.9091 0.900567 14.0431 1.12198 14.1341C1.34339 14.2251 1.58065 14.2712 1.82003 14.2699H5.24003L11.82 17.5599V1.8999ZM16.36 9.7299C16.3855 7.67433 15.5942 5.69266 14.16 4.2199L12.72 5.3699C13.3107 5.93003 13.7784 6.6069 14.0935 7.35749C14.4085 8.10808 14.564 8.91599 14.55 9.7299C14.5642 10.5453 14.4088 11.3548 14.0938 12.107C13.7788 12.8593 13.311 13.5379 12.72 14.0999L14.16 15.2399C14.8706 14.511 15.4307 13.6492 15.8082 12.7038C16.1856 11.7583 16.3732 10.7478 16.36 9.7299Z" fill="white"/>
</g>
<defs>
<clipPath id="clip0">
<rect width="20" height="20" fill="white"/>
</clipPath>
</defs>
</svg>
