<svg width="16" height="16" viewBox="0 0 16 16" fill="none" xmlns="http://www.w3.org/2000/svg">
<g clip-path="url(#clip0)">
<path fill-rule="evenodd" clip-rule="evenodd" d="M1.07803 13.9495H14.9224C15.3946 13.9495 15.7708 13.7225 15.9281 13.3419C16.073 12.9923 15.996 12.6038 15.7233 12.2841L9.0015 1.45382L8.93502 1.38735C8.68522 1.13754 8.35318 1 8.00004 1C7.64686 1 7.31487 1.13754 7.06532 1.38735L6.99884 1.45382L0.276757 12.2838C0.00416337 12.6036 -0.0731363 12.9923 0.0719876 13.3416C0.229529 13.7222 0.605505 13.9495 1.07803 13.9495ZM8.00004 2.92646L13.8316 12.3218H2.1687L8.00004 2.92646ZM7.99852 4.72827C7.53986 4.72827 7.16797 5.10016 7.16797 5.55882V9.11899C7.16797 9.57765 7.53986 9.94954 7.99852 9.94954C8.45718 9.94954 8.82907 9.57765 8.82907 9.11899V5.55882C8.82936 5.10016 8.45748 4.72827 7.99852 4.72827ZM8.81231 11.1896C8.81231 11.6437 8.44421 12.0118 7.99014 12.0118C7.53607 12.0118 7.16797 11.6437 7.16797 11.1896C7.16797 10.7355 7.53607 10.3674 7.99014 10.3674C8.44421 10.3674 8.81231 10.7355 8.81231 11.1896Z" fill="white"/>
</g>
<defs>
<clipPath id="clip0">
<rect width="16" height="16" fill="white"/>
</clipPath>
</defs>
</svg>
